<svg width="300" height="317" viewBox="0 0 300 317" fill="none" xmlns="http://www.w3.org/2000/svg">
<g clip-path="url(#clip0_3997_22216)">
<path d="M201.059 295.789H0V302.837H201.059V295.789Z" fill="url(#paint0_linear_3997_22216)"/>
<path d="M190.262 50.1026C189.46 51.6129 188.584 53.1704 187.64 54.7594L116.32 22.0676C116.902 20.3108 117.511 18.6274 118.13 17.0332L190.262 50.1026Z" fill="url(#paint1_linear_3997_22216)"/>
<path d="M179.296 66.5575C178.137 67.9472 176.894 69.3369 175.573 70.7109L112.119 41.6165C112.292 39.7182 112.539 37.8722 112.832 36.084L179.296 66.5575Z" fill="url(#paint2_linear_3997_22216)"/>
<path d="M163.407 80.7603C161.548 81.9472 159.622 83.0258 157.639 83.9907L113.698 63.8481C113.142 61.7225 112.706 59.5673 112.393 57.3926L163.407 80.7603Z" fill="url(#paint3_linear_3997_22216)"/>
<path d="M148.094 113.403L97.6875 90.2978C99.569 89.1217 101.518 88.057 103.524 87.1094L146.699 106.901C147.292 109.039 147.758 111.21 148.094 113.403Z" fill="url(#paint4_linear_3997_22216)"/>
<path d="M147.883 134.774L81.6445 104.432C82.8297 103.033 84.0813 101.653 85.3993 100.289L148.544 129.231C148.407 131.103 148.15 132.965 147.883 134.774Z" fill="url(#paint5_linear_3997_22216)"/>
<path d="M142.64 153.872L70.5645 120.834C71.372 119.329 72.2583 117.777 73.218 116.193L144.423 148.827C143.867 150.595 143.264 152.278 142.64 153.872Z" fill="url(#paint6_linear_3997_22216)"/>
<path d="M136.735 166.79C135.927 168.295 135.041 169.847 134.082 171.431L62.877 138.797C63.4486 137.035 64.0516 135.351 64.66 133.752L136.735 166.79Z" fill="url(#paint7_linear_3997_22216)"/>
<path d="M125.67 183.197C124.485 184.603 123.232 185.992 121.915 187.34L58.7656 158.398C58.9299 156.513 59.1589 154.664 59.4526 152.85L125.67 183.197Z" fill="url(#paint8_linear_3997_22216)"/>
<path d="M109.629 197.331C107.748 198.505 105.801 199.569 103.798 200.519L60.6123 180.728C60.0247 178.591 59.5607 176.421 59.2227 174.23L109.629 197.331Z" fill="url(#paint9_linear_3997_22216)"/>
<path d="M95.0978 231.79L42.5938 207.735C44.3793 206.523 46.2317 205.413 48.142 204.41L93.9966 225.429C94.4827 227.527 94.8504 229.65 95.0978 231.79Z" fill="url(#paint10_linear_3997_22216)"/>
<path d="M94.279 252.902L27.1543 222.135C28.2818 220.735 29.4932 219.329 30.7885 217.939L95.0865 247.411C94.8768 249.294 94.5988 251.135 94.279 252.902Z" fill="url(#paint11_linear_3997_22216)"/>
<path d="M88.7093 271.839L16.4297 238.712C17.2163 237.196 18.0711 235.628 19.0045 234.023L90.5814 266.831C89.9784 268.587 89.3491 270.26 88.7093 271.839Z" fill="url(#paint12_linear_3997_22216)"/>
<path d="M88.7099 271.839C89.3497 270.266 89.979 268.588 90.5821 266.831C91.6811 263.668 92.6175 260.451 93.3877 257.192C93.7128 255.815 94.01 254.385 94.2792 252.903C94.5991 251.135 94.877 249.295 95.0815 247.412C95.6797 242.224 95.6797 236.984 95.0815 231.795C94.8343 229.654 94.4666 227.528 93.9803 225.429C92.3462 218.257 89.276 211.49 84.9551 205.538C91.4858 205.017 97.868 203.317 103.792 200.519C105.795 199.569 107.743 198.505 109.623 197.331C114.106 194.508 118.232 191.153 121.91 187.341C123.227 185.993 124.48 184.603 125.665 183.198C128.765 179.5 131.571 175.566 134.056 171.43C135.015 169.857 135.902 168.284 136.709 166.789C137.517 165.294 138.319 163.711 139.006 162.279L139.877 160.423L140.711 158.556C141.345 157.103 141.995 155.535 142.63 153.873C143.264 152.21 143.841 150.595 144.413 148.833C145.936 144.245 147.097 139.544 147.884 134.774C148.173 132.959 148.409 131.103 148.566 129.225C149.052 123.951 148.901 118.637 148.115 113.399C147.779 111.205 147.313 109.034 146.72 106.896C144.976 100.583 142.099 94.6392 138.23 89.3544C144.994 88.7956 151.593 86.9742 157.686 83.9845C159.669 83.0195 161.595 81.9409 163.454 80.7541C167.891 77.8948 171.974 74.5223 175.621 70.7064C176.942 69.3324 178.185 67.9427 179.344 66.553C180.618 65.0322 181.798 63.5115 182.884 62.0169C184.656 59.5784 186.25 57.1346 187.682 54.7538C188.631 53.1806 189.507 51.6073 190.304 50.097C193.323 44.5083 195.799 38.643 197.698 32.5817L191.405 31.192C189.617 36.8082 187.294 42.2398 184.467 47.412C183.655 48.9171 182.768 50.4746 181.798 52.0531C180.639 53.9462 179.36 55.8708 177.97 57.7901C176.425 59.9087 174.832 61.8893 173.193 63.7317C171.913 65.1686 170.604 66.5216 169.265 67.7907C165.274 71.6237 160.716 74.8182 155.751 77.2615C153.552 78.3412 151.273 79.2477 148.933 79.9727C143.446 81.6383 137.712 82.3479 131.984 82.0704C128.036 77.9154 124.832 73.1115 122.513 67.8693C121.524 65.6116 120.714 63.2795 120.091 60.8946C118.718 55.5556 118.173 50.0374 118.476 44.533C118.565 42.6871 118.738 40.8149 119 38.9061C119.309 36.5357 119.755 34.1234 120.327 31.6535C120.898 29.1835 121.528 26.9338 122.23 24.7627C122.797 23.0007 123.394 21.3121 124.008 19.7179C126.075 14.2016 128.659 8.8936 131.727 3.86491L129.137 1.93508L126.557 0C123.201 5.39283 120.374 11.0969 118.114 17.0329C117.495 18.6061 116.887 20.3105 116.304 22.0672C115.434 24.6893 114.621 27.5054 113.929 30.4578C113.509 32.2565 113.127 34.1287 112.807 36.1005C112.513 37.8887 112.282 39.7346 112.093 41.633C111.585 46.8857 111.694 52.18 112.419 57.4073C112.732 59.582 113.168 61.7372 113.724 63.8628C115.434 70.4302 118.36 76.6186 122.351 82.1071C115.824 82.6276 109.445 84.328 103.525 87.1257C101.518 88.0733 99.5693 89.138 97.6878 90.3141C93.2058 93.1386 89.0805 96.4928 85.4009 100.304C84.0794 101.657 82.8278 103.038 81.6461 104.447C78.5444 108.143 75.7389 112.078 73.2555 116.215C72.2958 117.788 71.4096 119.361 70.602 120.856C69.7944 122.35 68.9921 123.934 68.3051 125.366L67.4346 127.217L66.6007 129.073C65.9662 130.526 65.3159 132.094 64.6814 133.751C64.0469 135.408 63.47 137.034 62.8984 138.796C61.3918 143.384 60.2468 148.083 59.474 152.85C59.1803 154.665 58.9513 156.514 58.787 158.398C58.3028 163.675 58.456 168.991 59.2432 174.23C59.5813 176.421 60.0453 178.591 60.6329 180.728C62.3806 187.04 65.2571 192.983 69.1232 198.269C61.7874 198.875 54.651 200.964 48.1467 204.41C46.2363 205.414 44.384 206.524 42.5984 207.735C38.2832 210.674 34.3191 214.098 30.7834 217.94C29.4881 219.33 28.2768 220.735 27.1493 222.135C26.2001 223.3 25.3138 224.464 24.48 225.607C22.5131 228.318 20.6858 231.127 19.0052 234.024C18.0717 235.628 17.2169 237.196 16.4303 238.712C13.6851 243.94 11.4191 249.406 9.66016 255.042L15.9531 256.432C17.5954 251.24 19.7015 246.206 22.246 241.392C23.0326 239.881 23.8979 238.313 24.8681 236.719C26.2106 234.459 27.7104 232.141 29.3885 229.834C30.6436 228.11 31.9302 226.478 33.2482 224.936C34.4928 223.485 35.7654 222.114 37.0659 220.824C40.8886 216.979 45.2566 213.717 50.0293 211.144C52.1272 210.024 54.3061 209.063 56.5478 208.27C62.5841 206.168 68.9693 205.251 75.3532 205.569C79.7588 210.196 83.2293 215.631 85.5739 221.574C86.4455 223.79 87.1468 226.069 87.6716 228.392C88.8423 233.685 89.2223 239.123 88.7991 244.528C88.6732 246.358 88.4634 248.199 88.175 250.107C87.8866 252.016 87.5038 253.993 87.0475 255.981C86.3815 258.844 85.5844 261.582 84.7244 264.146C84.1318 265.903 83.5078 267.586 82.8785 269.165C80.8937 274.24 78.4595 279.127 75.6049 283.769L78.1955 285.699L80.7756 287.634C83.8951 282.621 86.5509 277.334 88.7099 271.839ZM69.6843 184.881C68.647 182.608 67.7913 180.257 67.1251 177.849C65.6614 172.483 65.03 166.924 65.253 161.367C65.3159 159.452 65.468 157.559 65.6883 155.708C66.2879 150.887 67.3234 146.131 68.7823 141.497C69.3067 139.729 69.9203 138.03 70.5181 136.436C71.1631 134.706 71.8291 133.085 72.4794 131.591L73.2503 129.876L74.0474 128.171C74.7501 126.703 75.5472 125.14 76.4334 123.52C77.2568 122.025 78.1588 120.473 79.1394 118.9C81.6951 114.771 84.6211 110.883 87.8813 107.284C89.1452 105.91 90.5034 104.557 91.8879 103.257C95.9516 99.4617 100.573 96.3119 105.591 93.9168C107.852 92.8441 110.195 91.9515 112.597 91.2476C117.794 89.7537 123.2 89.1195 128.602 89.3702C132.32 93.2975 135.369 97.8078 137.627 102.722C138.669 104.996 139.528 107.349 140.197 109.759C141.661 115.125 142.292 120.684 142.069 126.242C142.006 128.156 141.854 130.049 141.633 131.905C141.033 136.723 139.998 141.476 138.539 146.106C137.989 147.879 137.402 149.573 136.804 151.172C136.153 152.903 135.498 154.523 134.842 156.012L134.077 157.727L133.274 159.437C132.572 160.905 131.775 162.463 130.888 164.083C130.065 165.583 129.163 167.13 128.182 168.703C125.625 172.833 122.699 176.722 119.44 180.324C118.177 181.698 116.845 183.051 115.439 184.346C111.377 188.15 106.756 191.309 101.736 193.712C99.4743 194.778 97.1316 195.664 94.7302 196.361C89.5291 197.852 84.1192 198.482 78.7146 198.227C74.996 194.302 71.9455 189.793 69.6843 184.881Z" fill="url(#paint13_linear_3997_22216)"/>
<path d="M254.229 144.664C254.229 144.664 245.282 124.395 255.666 126.073C255.666 126.073 259.2 128.994 262.824 134.946C265.572 139.451 271.283 151.381 271.073 155.398C270.863 159.415 267.974 162.462 264.89 168.944C264.89 168.944 258.45 180.969 258.178 182.421L251.36 178.887C251.36 178.887 257.129 167.386 261.198 157.276L254.229 144.664Z" fill="#DBDFF0"/>
<path d="M300.015 184.288L173.447 162.631L171.159 176.003L297.727 197.66L300.015 184.288Z" fill="url(#paint14_linear_3997_22216)"/>
<path d="M173.152 164.253L168.949 163.537L167.221 173.691L171.424 174.406L173.152 164.253Z" fill="#2D3038"/>
<path d="M202.422 316.403H200.733C200.733 316.403 201.294 310.026 199.732 309.963C198.169 309.9 194.293 315.149 191.981 315.967C189.668 316.786 177.79 317.467 177.727 315.275C177.664 313.083 182.29 312.213 183.726 311.604C185.163 310.996 192.169 304.163 193.418 303.355C194.666 302.548 196.8 296.889 196.8 296.889L203.434 296.596C203.434 296.596 203.806 301.877 204.21 304.672C204.346 305.54 204.437 306.416 204.483 307.294C204.561 309.654 202.422 316.403 202.422 316.403Z" fill="#EEA886"/>
<path d="M245.152 315.171H243.741V309.208C242.572 309.308 238.634 313.031 237.412 314.112C236.19 315.192 234.522 315.16 229.388 315.47C224.254 315.779 223.772 312.722 224.585 311.673C225.397 310.624 228.019 310.173 229.388 309.518C230.757 308.862 236.148 302.784 237.585 301.342C239.022 299.9 239.897 295.768 239.897 295.768L245.902 296.292C245.895 298.618 246.111 300.94 246.547 303.225C246.605 303.492 246.668 303.749 246.741 304.017C247.632 307.347 245.152 315.171 245.152 315.171Z" fill="#EEA886"/>
<path d="M222.959 180.617C222.959 180.617 220.694 185.977 220.495 187.335C220.295 188.693 215.009 201.52 213.436 210.173C212.518 215.354 209.98 231.569 209.765 233.63C209.414 237.16 207.752 244.947 207.495 248.55C207.353 250.563 197.431 281.493 195.029 297.635C195.029 297.635 200.735 298.479 205.019 297.346C205.019 297.346 213.73 280.659 218.57 256.993C221.481 242.739 224.061 235.135 226.316 229.267C228.571 223.399 241.356 206.77 242.688 204.898C244.02 203.026 252.384 192.71 244.466 181.525C236.547 170.339 222.959 180.617 222.959 180.617Z" fill="#292C47"/>
<path d="M251.534 228.119C250.81 232.933 251.57 239.262 253.107 256.867C254.643 274.471 250.438 295.768 250.438 295.768C245.193 297.556 239.194 295.768 239.194 295.768C239.33 294.53 239.194 252.86 239.194 249.148C239.194 245.435 238.145 241.218 237.852 236.955C237.668 234.05 236.315 228.696 234.794 223.231C234.338 221.59 233.866 219.943 233.41 218.349C233.155 217.454 232.903 216.58 232.655 215.727C230.515 208.301 227.631 179.621 227.631 179.621C227.631 179.621 243.594 166.768 251.366 178.871C259.137 190.975 255.147 199.8 254.864 201.3C254.58 202.8 252.241 223.305 251.534 228.119Z" fill="#292C47"/>
<path d="M244.9 202.254C244.78 202.532 236.824 220.184 234.779 223.23C234.323 221.589 233.851 219.942 233.395 218.348C233.395 218.348 244.654 202.642 244.9 202.254Z" fill="#191B2B"/>
<path d="M245.152 315.17H243.741V309.208C242.572 309.308 238.634 313.031 237.412 314.111C236.19 315.191 234.522 315.16 229.388 315.469C224.254 315.779 223.772 312.721 224.585 311.673C225.397 310.624 228.019 310.173 229.388 309.517C234.879 309.811 241.581 302.092 244.801 302.107C246.51 302.107 246.494 303.062 246.547 303.24C246.605 303.508 246.668 303.765 246.741 304.032C247.632 307.346 245.152 315.17 245.152 315.17Z" fill="#C6C9CC"/>
<path d="M202.422 316.404H200.733C200.733 316.404 201.294 310.027 199.732 309.964C198.169 309.902 194.293 315.151 191.981 315.969C189.668 316.787 177.79 317.469 177.727 315.277C177.664 313.085 182.29 312.214 183.726 311.606C188.624 311.606 196.596 306.204 199.066 305.108C200.7 304.459 202.49 304.308 204.21 304.673C204.346 305.542 204.437 306.417 204.483 307.295C204.561 309.655 202.422 316.404 202.422 316.404Z" fill="#C6C9CC"/>
<path d="M237.033 113.272C237.033 113.272 239.577 120.011 237.6 125.219C237.6 125.219 246.934 124.61 247.291 123.519C247.647 122.429 246.913 112.334 248.198 109.36C249.483 106.387 237.033 113.272 237.033 113.272Z" fill="#EEA886"/>
<path d="M236.153 122.958C236.153 122.958 230.631 124.925 228.14 125.47C225.649 126.015 220.426 128.485 220.851 137.788C221.275 147.091 222.833 155.162 223.399 159.158C223.966 163.154 223.609 173.317 222.691 178.273C232.186 180.271 241.992 180.271 251.487 178.273C251.487 178.273 248.728 169.846 248.796 167.664C248.865 165.483 257.995 147.527 258.419 144.695C258.844 141.863 260.68 129.356 256.505 126.597C252.331 123.839 248.938 124.196 247.171 122.958C245.404 121.72 238.733 122.072 236.153 122.958Z" fill="#DBDFF0"/>
<path d="M261.922 264.041C239.32 270.04 208.836 264.44 208.836 264.44C210.477 261.068 219.728 186.166 220.572 182.925C221.167 180.713 221.633 178.468 221.967 176.202C223.803 163.889 221.411 154.46 221.411 154.46C224.033 132.985 256.505 126.577 259.111 133.384C261.718 140.191 255.325 172.515 254.916 175.022C254.507 177.529 261.922 264.041 261.922 264.041Z" fill="#DBDFF0"/>
<path d="M245.194 86.2597C241.439 84.9697 231.292 83.6009 228.691 99.176C226.09 114.751 231.754 115.018 237.569 114.578C243.385 114.137 252.484 103.618 253.181 100.419C253.878 97.2199 255.913 89.9306 245.194 86.2597Z" fill="#EEA886"/>
<path d="M230.783 92.239C230.783 92.239 233.888 98.8728 237.947 101.212C237.947 101.212 240.495 108.255 246.012 111.107C246.012 111.107 260.648 101.411 252.153 89.8844C243.658 78.3578 231.743 87.5141 230.783 92.239Z" fill="#0F324F"/>
<path d="M237.59 98.8822C237.915 98.0746 240.112 96.7584 241.093 98.9766C242.074 101.195 238.545 105.117 237.58 104.908C236.615 104.698 236.337 101.961 237.59 98.8822Z" fill="#EEA886"/>
<path d="M251.66 91.6412C251.98 91.1431 261.671 86.6541 263.69 96.0306C265.709 105.407 255.882 116.31 254.162 120.998C252.442 125.686 254.938 136.678 254.938 136.678C254.938 136.678 249.028 131.103 247.24 125.24C245.278 118.816 244.618 102.622 251.66 91.6412Z" fill="#0F324F"/>
<path d="M252.148 91.3218C252.148 91.3218 249.18 93.6711 248.797 97.3735C248.797 97.3735 248.241 94.484 249.437 92.7167C250.632 90.9495 252.148 91.3218 252.148 91.3218Z" fill="#E54242"/>
<path d="M220.578 182.925C221.197 180.623 221.999 175.584 222.319 173.428C222.319 173.428 223.677 172.416 223.961 171.535C224.443 170.014 228.203 151.408 228.203 151.408C228.203 151.408 232.162 168.892 220.578 182.925Z" fill="#A0A3B0"/>
<path d="M204.311 178.404C204.311 178.404 200.273 180.276 199.329 180.57C198.385 180.864 196.571 179.259 189.89 178.761C189.302 178.714 188.269 179.243 188.51 180.019C188.752 180.796 191.657 182.909 192.916 183.234C194.174 183.559 200.042 185.893 202.911 184.744C205.779 183.596 207.725 179.951 207.725 179.951L204.311 178.404Z" fill="#EEA886"/>
<path d="M226.576 125.979C226.576 125.979 218.836 129.046 218.38 139.802C217.923 150.558 217.499 156.179 217.105 157.847C216.712 159.515 217.252 162.388 215.307 166.405C213.419 170.297 199.574 180.25 199.574 180.25L203.801 186.69C203.801 186.69 222.911 174.712 223.959 171.539C225.008 168.367 229.329 146.31 229.691 142.566C229.953 139.566 233.886 126.199 226.576 125.979Z" fill="#DBDFF0"/>
<path fill-rule="evenodd" clip-rule="evenodd" d="M71.461 157.994V158.728C71.461 159.777 71.5187 160.779 71.6079 161.786C71.8149 164.633 72.2747 167.457 72.9818 170.223C75.1748 178.827 79.6583 186.676 85.9558 192.936C86.1367 193.121 86.3175 193.297 86.4984 193.472C86.5588 193.531 86.6191 193.59 86.6795 193.649C87.6444 194.582 88.6565 195.474 89.7053 196.323C98.4943 203.487 109.49 207.391 120.829 207.373H121.422C130.062 207.287 138.527 204.921 145.959 200.513C156.15 194.476 163.841 184.988 167.638 173.768C168.021 172.61 168.372 171.44 168.687 170.244C169.235 168.096 169.636 165.913 169.888 163.71L169.893 163.662C169.944 163.201 169.994 162.745 170.029 162.279C170.04 162.144 170.05 162.014 170.061 161.885C170.088 161.551 170.114 161.231 170.129 160.894C170.129 160.684 170.129 160.475 170.161 160.265C170.161 160.014 170.171 159.764 170.182 159.514C170.191 159.3 170.2 159.086 170.202 158.87V158.02C170.202 146.226 165.98 134.822 158.3 125.871C150.62 116.919 139.99 111.012 128.333 109.219C127.872 109.145 127.416 109.082 126.949 109.019C126.482 108.957 125.932 108.904 125.418 108.862C125.28 108.851 125.151 108.84 125.025 108.83C124.682 108.801 124.372 108.775 124.033 108.752C122.984 108.679 121.899 108.652 120.829 108.652C119.922 108.652 119.015 108.652 118.123 108.721C116.587 108.804 115.071 108.962 113.571 109.182C106.64 110.21 100.007 112.702 94.1139 116.494C88.2211 120.285 83.2035 125.288 79.3954 131.171C77.8774 133.501 76.5616 135.957 75.4623 138.512C75.3889 138.675 75.3207 138.843 75.2578 139C75.2335 139.061 75.2084 139.122 75.1834 139.182C75.1437 139.278 75.1044 139.373 75.069 139.467C74.6862 140.379 74.3453 141.302 74.0202 142.236C73.1973 144.68 72.5696 147.186 72.1428 149.729C72.0169 150.406 71.9225 151.093 71.8281 151.785C71.8281 151.901 71.8281 152.016 71.7914 152.142V152.173V152.346C71.7769 152.414 71.7681 152.482 71.7652 152.551V152.603C71.7593 152.636 71.7593 152.67 71.7652 152.703C71.7601 152.753 71.7601 152.804 71.7652 152.855C71.7652 152.923 71.7559 152.99 71.7465 153.058C71.7387 153.114 71.7309 153.17 71.7285 153.227C71.6551 153.982 71.5974 154.748 71.5607 155.514V155.828V156.353C71.4506 156.867 71.4453 157.428 71.4453 157.994H71.461ZM161.409 151.397C165.048 173.813 149.826 194.935 127.41 198.573C104.994 202.212 83.8724 186.99 80.2337 164.574C76.5951 142.158 91.8172 121.036 114.233 117.398C136.649 113.759 157.771 128.981 161.409 151.397Z" fill="#00428F"/>
<path opacity="0.3" d="M148.593 127.473C148.593 127.473 95.0398 120.834 84.368 177.355C79.8104 168.771 78.4285 158.854 80.4657 149.351C82.5029 139.848 87.8285 131.368 95.5043 125.407C103.18 119.445 112.714 116.384 122.425 116.762C132.137 117.14 141.403 120.933 148.593 127.473Z" fill="#869AC2"/>
</g>
<defs>
<linearGradient id="paint0_linear_3997_22216" x1="77.938" y1="299.308" x2="300.876" y2="299.308" gradientUnits="userSpaceOnUse">
<stop stop-color="#6695D4"/>
<stop offset="0.99" stop-color="#2F4563"/>
</linearGradient>
<linearGradient id="paint1_linear_3997_22216" x1="-5.34188" y1="287.905" x2="208.91" y2="-15.7809" gradientUnits="userSpaceOnUse">
<stop stop-color="#257FE6"/>
<stop offset="1" stop-color="#FF5C9B"/>
</linearGradient>
<linearGradient id="paint2_linear_3997_22216" x1="121629" y1="-25751.2" x2="123598" y2="-50491.4" gradientUnits="userSpaceOnUse">
<stop stop-color="#257FE6"/>
<stop offset="1" stop-color="#FF5C9B"/>
</linearGradient>
<linearGradient id="paint3_linear_3997_22216" x1="92679.6" y1="-19728.2" x2="94208.7" y2="-38728.9" gradientUnits="userSpaceOnUse">
<stop stop-color="#257FE6"/>
<stop offset="1" stop-color="#FF5C9B"/>
</linearGradient>
<linearGradient id="paint4_linear_3997_22216" x1="92083.8" y1="-19430.4" x2="93596.1" y2="-38213.5" gradientUnits="userSpaceOnUse">
<stop stop-color="#257FE6"/>
<stop offset="1" stop-color="#FF5C9B"/>
</linearGradient>
<linearGradient id="paint5_linear_3997_22216" x1="122541" y1="-25467.1" x2="124501" y2="-50106" gradientUnits="userSpaceOnUse">
<stop stop-color="#257FE6"/>
<stop offset="1" stop-color="#FF5C9B"/>
</linearGradient>
<linearGradient id="paint6_linear_3997_22216" x1="135665" y1="-27787.7" x2="137785" y2="-54712.3" gradientUnits="userSpaceOnUse">
<stop stop-color="#257FE6"/>
<stop offset="1" stop-color="#FF5C9B"/>
</linearGradient>
<linearGradient id="paint7_linear_3997_22216" x1="135994" y1="-27744.2" x2="138114" y2="-54668.4" gradientUnits="userSpaceOnUse">
<stop stop-color="#257FE6"/>
<stop offset="1" stop-color="#FF5C9B"/>
</linearGradient>
<linearGradient id="paint8_linear_3997_22216" x1="123552" y1="-25337.4" x2="125513" y2="-49980" gradientUnits="userSpaceOnUse">
<stop stop-color="#257FE6"/>
<stop offset="1" stop-color="#FF5C9B"/>
</linearGradient>
<linearGradient id="paint9_linear_3997_22216" x1="93383.7" y1="-19232.1" x2="94895.2" y2="-38011.4" gradientUnits="userSpaceOnUse">
<stop stop-color="#257FE6"/>
<stop offset="1" stop-color="#FF5C9B"/>
</linearGradient>
<linearGradient id="paint10_linear_3997_22216" x1="97815.1" y1="-19961.7" x2="99389.2" y2="-39520.5" gradientUnits="userSpaceOnUse">
<stop stop-color="#257FE6"/>
<stop offset="1" stop-color="#FF5C9B"/>
</linearGradient>
<linearGradient id="paint11_linear_3997_22216" x1="126912" y1="-25503.3" x2="128896" y2="-50483.6" gradientUnits="userSpaceOnUse">
<stop stop-color="#257FE6"/>
<stop offset="1" stop-color="#FF5C9B"/>
</linearGradient>
<linearGradient id="paint12_linear_3997_22216" x1="138909" y1="-27555.3" x2="141035" y2="-54577" gradientUnits="userSpaceOnUse">
<stop stop-color="#257FE6"/>
<stop offset="1" stop-color="#FF5C9B"/>
</linearGradient>
<linearGradient id="paint13_linear_3997_22216" x1="42.9804" y1="371.006" x2="140.256" y2="-105.003" gradientUnits="userSpaceOnUse">
<stop stop-color="#3B9DD9"/>
<stop offset="1" stop-color="white"/>
</linearGradient>
<linearGradient id="paint14_linear_3997_22216" x1="213.033" y1="118.367" x2="238.063" y2="186.965" gradientUnits="userSpaceOnUse">
<stop stop-color="#40D5E6"/>
<stop offset="1" stop-color="#5577FF"/>
</linearGradient>
<clipPath id="clip0_3997_22216">
<rect width="300" height="316.75" fill="white"/>
</clipPath>
</defs>
</svg>
