<svg width="307" height="324" viewBox="0 0 307 324" fill="none" xmlns="http://www.w3.org/2000/svg">
<g clip-path="url(#clip0_3886_4402)">
<path d="M286.99 306.17L289.761 264.565L250.741 261.966L249.911 274.425C242.449 274.266 209.332 272.14 187.022 247.312C170.828 229.3 163.754 203.101 165.995 169.461C173.504 56.7085 72.5401 36.997 57.3914 34.6833L58.3314 20.5701L19.3111 17.9713L16.5402 59.5758L55.5604 62.1746L56.4671 48.5607C72.439 50.9385 159.653 68.527 152.988 168.595C150.477 206.293 158.748 236.027 177.569 256.968C202.823 285.065 238.783 288.049 248.986 288.311L247.97 303.571L286.99 306.17ZM21.1827 55.2557L23.3379 22.8966L53.687 24.9179L51.5318 57.277L21.1827 55.2557ZM252.613 299.237L254.768 266.878L285.117 268.899L282.962 301.258L252.613 299.237Z" fill="#00428F"/>
</g>
<defs>
<clipPath id="clip0_3886_4402">
<rect width="305.196" height="286.239" fill="white" transform="translate(306.095 19.3206) rotate(93.8104)"/>
</clipPath>
</defs>
</svg>
