<svg width="315" height="328" viewBox="0 0 315 328" fill="none" xmlns="http://www.w3.org/2000/svg">
<g clip-path="url(#clip0_3886_4423)">
<path d="M23.4704 310.261L20.0675 268.704L59.6709 265.461L60.6898 277.905C68.2685 277.624 101.881 274.951 124.195 249.756C140.391 231.476 147.207 205.161 144.456 171.56C135.233 58.934 237.523 37.5565 252.88 34.9928L251.725 20.8956L291.329 17.6527L294.732 59.2103L255.128 62.4531L254.015 48.8546C237.823 51.4959 149.472 70.5235 157.657 170.479C160.74 208.134 152.758 238.004 133.935 259.255C108.676 287.768 72.1873 291.346 61.8256 291.776L63.0737 307.018L23.4704 310.261ZM289.954 54.9669L287.308 22.6444L256.505 25.1666L259.152 57.4892L289.954 54.9669ZM58.2953 302.761L55.6486 270.439L24.846 272.961L27.4927 305.284L58.2953 302.761Z" fill="#00428F"/>
</g>
<defs>
<clipPath id="clip0_3886_4423">
<rect width="305.196" height="290.845" fill="white" transform="matrix(0.08161 0.996664 0.996664 -0.08161 0.00878906 23.7358)"/>
</clipPath>
</defs>
</svg>
