<svg width="30" height="30" viewBox="0 0 30 30" fill="none" xmlns="http://www.w3.org/2000/svg">
<g clip-path="url(#clip0_3887_4882)">
<path d="M17.0141 17.1616C14.2892 17.1616 11.9439 15.2183 11.4375 12.5409C11.4349 12.5273 11.433 12.5136 11.4317 12.4999L10.6555 4.39213C10.5557 3.34928 10.9026 2.30655 11.6072 1.53129C12.3117 0.756039 13.3167 0.311371 14.3643 0.311371C14.6144 0.311371 14.8172 0.514164 14.8172 0.764301C14.8172 1.01444 14.6144 1.21723 14.3643 1.21723C13.5714 1.21723 12.8108 1.55373 12.2776 2.14049C11.7443 2.72725 11.4818 3.51645 11.5574 4.30571L12.3315 12.3923C12.7648 14.6322 14.7309 16.2556 17.0141 16.2556C19.2973 16.2556 21.2634 14.6322 21.6967 12.3923L22.4708 4.30571C22.5463 3.51645 22.2838 2.72725 21.7506 2.14049C21.2173 1.55373 20.4567 1.21723 19.6639 1.21723C19.4137 1.21723 19.2109 1.01444 19.2109 0.764301C19.2109 0.514164 19.4137 0.311371 19.6639 0.311371C20.7115 0.311371 21.7164 0.756039 22.421 1.53129C23.1256 2.30655 23.4725 3.34928 23.3726 4.39213L22.5965 12.4999C22.5951 12.5136 22.5932 12.5273 22.5906 12.5409C22.0842 15.2183 19.739 17.1616 17.0141 17.1616Z" fill="#C8C1C9"/>
<path d="M15.3178 1.52871H13.8954C13.4858 1.52871 13.1538 1.19672 13.1538 0.787148V0.741562C13.1538 0.331992 13.4858 0 13.8954 0H15.3178C15.7274 0 16.0594 0.331992 16.0594 0.741562V0.787148C16.0594 1.19672 15.7274 1.52871 15.3178 1.52871Z" fill="#C8C1C9"/>
<path d="M20.1327 1.52871H18.7103C18.3007 1.52871 17.9688 1.19672 17.9688 0.787148V0.741562C17.9688 0.331992 18.3007 0 18.7103 0H20.1327C20.5423 0 20.8743 0.331992 20.8743 0.741562V0.787148C20.8744 1.19672 20.5423 1.52871 20.1327 1.52871Z" fill="#C8C1C9"/>
<path d="M15.3177 0H15.2958V0.0236133C15.2958 0.433184 14.9638 0.765176 14.5542 0.765176H13.1538V0.787148C13.1538 1.19672 13.4858 1.52871 13.8954 1.52871H15.3178C15.7273 1.52871 16.0593 1.19672 16.0593 0.787148V0.741562C16.0593 0.331992 15.7273 0 15.3177 0V0Z" fill="#8F818F"/>
<path d="M20.1327 0H20.1108V0.0236133C20.1108 0.433184 19.7788 0.765176 19.3692 0.765176H17.9688V0.787148C17.9688 1.19672 18.3007 1.52871 18.7103 1.52871H20.1327C20.5423 1.52871 20.8743 1.19672 20.8743 0.787148V0.741562C20.8744 0.331992 20.5423 0 20.1327 0V0Z" fill="#8F818F"/>
<path d="M21.362 11.1358L21.248 12.3271C20.8476 14.3435 19.0734 15.8028 17.0141 15.8028C14.9548 15.8028 13.1805 14.3435 12.7802 12.3271L12.6661 11.1358C12.6503 10.9698 12.5028 10.8481 12.3368 10.8639L11.1344 10.9791C10.9684 10.995 10.8467 11.1424 10.8626 11.3084L10.9847 12.5843L10.9924 12.625C11.4631 15.1135 13.4052 17.0135 15.8133 17.4947C15.984 17.5288 16.1082 17.6764 16.1082 17.8505V25.6009C16.1082 27.0233 14.9441 28.2121 13.5218 28.1878C12.1403 28.1641 11.0238 27.0329 11.0238 25.6459V22.2364H9.21191V25.5904C9.21191 27.9874 11.126 29.9765 13.523 29.9997C15.9434 30.0232 17.92 28.061 17.92 25.6459V17.8505C17.92 17.6764 18.0442 17.5288 18.2149 17.4947C20.6229 17.0135 22.5651 15.1135 23.0358 12.625L23.0435 12.5843L23.1656 11.3084C23.1815 11.1424 23.0598 10.995 22.8938 10.9791L21.6914 10.8639C21.5254 10.8481 21.3779 10.9698 21.362 11.1358Z" fill="#FC8086"/>
<path d="M22.8933 10.9791L22.295 10.9218L22.2151 11.7564L22.2074 11.7972C21.7806 14.0535 20.1443 15.8259 18.0478 16.4957C17.4758 16.6785 17.0917 17.2156 17.0917 17.8161V24.8181C17.0917 27.2332 15.1151 29.1954 12.6946 29.1719C11.7289 29.1625 10.8418 28.8337 10.1265 28.288C10.9129 29.3148 12.1365 29.9863 13.5225 29.9998C15.9429 30.0233 17.9196 28.0611 17.9196 25.646V17.8505C17.9196 17.6764 18.0437 17.5288 18.2145 17.4947C20.6225 17.0135 22.5646 15.1135 23.0353 12.625L23.043 12.5842L23.1652 11.3084C23.181 11.1424 23.0593 10.9949 22.8933 10.9791Z" fill="#FA4954"/>
<path d="M10.1665 25.3414C12.1303 25.3414 13.7222 23.7494 13.7222 21.7857C13.7222 19.8219 12.1303 18.23 10.1665 18.23C8.20278 18.23 6.61084 19.8219 6.61084 21.7857C6.61084 23.7494 8.20278 25.3414 10.1665 25.3414Z" fill="#C8C1C9"/>
<path d="M11.6058 18.5345C11.801 18.9748 11.9103 19.4616 11.9103 19.9741C11.9103 21.9378 10.3183 23.5298 8.35457 23.5298C7.84199 23.5298 7.35525 23.4205 6.91504 23.2253C7.46775 24.4716 8.71504 25.3414 10.1662 25.3414C12.1299 25.3414 13.7219 23.7494 13.7219 21.7857C13.7219 20.3345 12.8521 19.0873 11.6058 18.5345Z" fill="#B1ABB5"/>
<path d="M10.1665 23.5298C11.1297 23.5298 11.9106 22.7489 11.9106 21.7857C11.9106 20.8225 11.1297 20.0416 10.1665 20.0416C9.20322 20.0416 8.42236 20.8225 8.42236 21.7857C8.42236 22.7489 9.20322 23.5298 10.1665 23.5298Z" fill="#B1ABB5"/>
<path d="M10.9385 20.2218C11.0536 20.4546 11.1187 20.7166 11.1187 20.9938C11.1187 21.9571 10.3378 22.7379 9.37457 22.7379C9.09731 22.7379 8.83527 22.673 8.60254 22.5578C8.88736 23.1337 9.48051 23.5298 10.1665 23.5298C11.1297 23.5298 11.9106 22.749 11.9106 21.7857C11.9105 21.0998 11.5143 20.5066 10.9385 20.2218Z" fill="#8F818F"/>
</g>
<defs>
<clipPath id="clip0_3887_4882">
<rect width="30" height="30" fill="white"/>
</clipPath>
</defs>
</svg>
