<svg width="30" height="30" viewBox="0 0 30 30" fill="none" xmlns="http://www.w3.org/2000/svg">
<g clip-path="url(#clip0_3887_4836)">
<path d="M29.9844 28.7513C29.9844 29.1259 29.8596 29.4381 29.6098 29.6878C29.3601 29.8752 29.1104 30 28.7357 30H1.26433C0.952182 30 0.639976 29.8751 0.390212 29.6878C0.140447 29.4381 0.015625 29.1259 0.015625 28.7513V10.4578H29.9844V28.7513Z" fill="#FFD15C"/>
<path d="M29.6098 29.6879C29.36 29.8752 29.1103 30 28.7357 30H1.26425C0.952107 30 0.639901 29.8752 0.390137 29.6879L14.9999 17.1385L29.6098 29.6879Z" fill="#F8B64C"/>
<path d="M29.9844 10.4579L25.7389 13.5172L15.8117 20.6348C15.3122 21.0094 14.6254 21.0094 14.1259 20.6348L4.2612 13.5172L0.015625 10.4579L4.2612 7.39854L13.5016 0.78044L14.1884 0.280971C14.6879 -0.0936162 15.3746 -0.0936162 15.8741 0.280971L16.5609 0.78044L20.9938 3.96464L23.179 5.52549L25.7389 7.39854L29.9844 10.4579Z" fill="#40596B"/>
<path d="M25.7389 4.65139V13.5171L15.8117 20.6348C15.3122 21.0093 14.6254 21.0093 14.126 20.6348L4.26123 13.5171V2.0291C4.26123 1.34231 4.82314 0.780396 5.50993 0.780396H21.8055L25.7389 4.65139Z" fill="#F2F2F2"/>
<path d="M21.8677 3.65245C21.8677 4.21436 22.3048 4.65139 22.8667 4.65139H25.7387L21.8677 0.780396L21.8677 3.65245Z" fill="#CDD6E0"/>
<path d="M18.6837 13.3298H19.6827C19.3705 14.0166 18.871 14.5161 18.1842 14.8906C17.435 15.3277 16.4985 15.515 15.3746 15.515C14.3133 15.515 13.3767 15.3277 12.6275 14.9531C11.8782 14.5785 11.2539 14.079 10.8793 13.3298C10.5047 12.643 10.3174 11.8313 10.3174 11.0197C10.3174 10.0832 10.5047 9.27154 10.9417 8.45986C11.3788 7.64819 11.9407 7.08628 12.6899 6.71169C13.4391 6.3371 14.3132 6.14978 15.2498 6.14978C16.0614 6.14978 16.8106 6.3371 17.435 6.64925C18.0593 6.9614 18.5588 7.39848 18.871 8.02284C19.1831 8.58475 19.3704 9.27154 19.3704 9.95833C19.3704 10.77 19.1207 11.5192 18.6212 12.206C17.9969 13.0801 17.1852 13.4547 16.1862 13.4547C15.9365 13.4547 15.6868 13.3922 15.5619 13.3298C15.437 13.2049 15.3121 13.08 15.3121 12.8928C14.9375 13.2674 14.5005 13.4547 14.001 13.4547C13.4391 13.4547 13.0021 13.2674 12.6898 12.8928C12.3153 12.5182 12.1279 12.0186 12.1279 11.3943C12.1279 10.6451 12.3153 9.95827 12.7523 9.27148C13.2518 8.52224 13.9385 8.14766 14.7502 8.14766C15.3121 8.14766 15.7492 8.39742 16.0614 8.83445L16.1862 8.27254H17.4974L16.7482 11.7689C16.6857 12.0186 16.6857 12.1435 16.6857 12.2059C16.6857 12.2684 16.6857 12.3308 16.7482 12.3932C16.8106 12.4557 16.8106 12.4557 16.873 12.4557C16.9979 12.4557 17.2476 12.3308 17.4974 12.1435C17.8095 11.8938 18.1217 11.5816 18.3091 11.1446C18.4964 10.7076 18.6212 10.2705 18.6212 9.83345C18.6212 9.02177 18.3091 8.33498 17.7471 7.83551C17.1852 7.2736 16.3735 7.02384 15.3121 7.02384C14.438 7.02384 13.6888 7.21116 13.0645 7.58575C12.4401 7.96033 12.0031 8.45986 11.6909 9.08421C11.3787 9.70857 11.2539 10.3954 11.2539 11.1446C11.2539 11.8314 11.4412 12.4557 11.7533 13.0176C12.1279 13.5796 12.565 14.0166 13.1894 14.2663C13.8137 14.5161 14.5005 14.6409 15.3122 14.6409C16.0614 14.6409 16.7482 14.5161 17.3101 14.3288C17.872 14.079 18.3091 13.7668 18.6837 13.3298ZM13.3767 11.3319C13.3767 11.7689 13.4391 12.0186 13.6265 12.2684C13.8138 12.4557 14.001 12.5805 14.2508 12.5805C14.4381 12.5805 14.6254 12.5181 14.7503 12.4556C14.8752 12.3932 15 12.2683 15.1249 12.1435C15.3122 11.9561 15.4371 11.644 15.5619 11.2694C15.6868 10.8948 15.7492 10.5201 15.7492 10.208C15.7492 9.83339 15.6868 9.58362 15.4995 9.33386C15.3121 9.14654 15.1249 9.02171 14.8751 9.02171C14.6253 9.02171 14.3132 9.1466 14.1259 9.33386C13.8761 9.52118 13.6888 9.83333 13.564 10.2704C13.4391 10.6451 13.3767 11.0196 13.3767 11.3319Z" fill="#FF7058"/>
</g>
<defs>
<clipPath id="clip0_3887_4836">
<rect width="30" height="30" fill="white"/>
</clipPath>
</defs>
</svg>
