<svg width="100" height="100" viewBox="0 0 100 100" fill="none" xmlns="http://www.w3.org/2000/svg">
<path d="M24.1233 0C20.3146 0 17.2267 3.08788 17.2267 6.89657V79.2964L65.5179 79.3101V91.0084C65.5179 95.5118 68.8093 99.5325 73.2903 99.9601C78.4333 100.45 82.7592 96.4204 82.7592 91.3791V58.6206V17.2414V8.62071C82.7592 3.86034 86.6177 0 91.3799 0H24.1233Z" fill="#E6E7E8"/>
<path d="M24.1233 0C20.3146 0 17.2267 3.08788 17.2267 6.89657V79.2964L65.5179 79.3101V91.0084C65.5179 95.5118 68.8093 99.5325 73.2903 99.9601C78.4333 100.45 82.7592 96.4204 82.7592 91.3791V58.6206V17.2414V8.62071C82.7592 3.86034 86.6177 0 91.3799 0H24.1233Z" fill="#E6E7E8"/>
<path d="M91.3793 0C86.6189 0 82.7586 3.86034 82.7586 8.62071V20.7052H96.5362C98.4501 20.7052 100 19.1535 100 17.2414V8.62071C100 3.86034 96.1396 0 91.3793 0Z" fill="#B0B6BB"/>
<path d="M74.1379 99.9998C69.3775 99.9998 65.5172 96.1395 65.5172 91.3791V79.3101L3.46378 79.2946C1.5499 79.2946 0 80.8463 0 82.7584V91.3791C0 96.1395 3.86034 99.9998 8.62071 99.9998H74.1379Z" fill="#B0B6BB"/>
<path d="M60.3449 12.069H39.6552C38.7036 12.069 37.9311 11.2983 37.9311 10.3449C37.9311 9.39141 38.7036 8.62073 39.6552 8.62073H60.3449C61.2966 8.62073 62.0691 9.39141 62.0691 10.3449C62.0691 11.2983 61.2966 12.069 60.3449 12.069Z" fill="#B0B6BB"/>
<path d="M72.4137 22.4139H27.5863C26.6346 22.4139 25.8621 21.6432 25.8621 20.6897C25.8621 19.7363 26.6346 18.9656 27.5863 18.9656H72.4137C73.3654 18.9656 74.1379 19.7363 74.1379 20.6897C74.1379 21.6432 73.3656 22.4139 72.4137 22.4139Z" fill="#B0B6BB"/>
<path d="M72.4137 32.7585H27.5863C26.6346 32.7585 25.8621 31.9878 25.8621 31.0343C25.8621 30.0809 26.6346 29.3102 27.5863 29.3102H72.4137C73.3654 29.3102 74.1379 30.0809 74.1379 31.0343C74.1379 31.9878 73.3656 32.7585 72.4137 32.7585Z" fill="#B0B6BB"/>
<path d="M48.2221 43.1033H27.5861C26.6344 43.1033 25.8619 42.3326 25.8619 41.3792C25.8619 40.4257 26.6344 39.655 27.5861 39.655H48.2223C49.174 39.655 49.9465 40.4257 49.9465 41.3792C49.9463 42.3326 49.1738 43.1033 48.2221 43.1033Z" fill="#B0B6BB"/>
<path d="M41.7255 53.4482H27.5858C26.6342 53.4482 25.8617 52.6775 25.8617 51.724C25.8617 50.7706 26.6342 49.9999 27.5858 49.9999H41.7255C42.6771 49.9999 43.4496 50.7706 43.4496 51.724C43.4496 52.6775 42.6771 53.4482 41.7255 53.4482Z" fill="#B0B6BB"/>
<path d="M42.8147 63.793H27.5855C26.6338 63.793 25.8613 63.0223 25.8613 62.0689C25.8613 61.1154 26.6338 60.3447 27.5855 60.3447H42.8147C43.7663 60.3447 44.5388 61.1154 44.5388 62.0689C44.5388 63.0223 43.7665 63.793 42.8147 63.793Z" fill="#B0B6BB"/>
<path d="M75.862 55.1723C75.862 45.65 68.1431 37.9309 58.6206 37.9309C49.0981 37.9309 41.3792 45.6498 41.3792 55.1723C41.3792 64.6948 49.0981 72.4137 58.6206 72.4137C68.1431 72.4137 75.862 64.6946 75.862 55.1723Z" fill="#6ABDA0"/>
<path d="M56.8967 65.5172C56.4415 65.5172 56.0018 65.3378 55.6778 65.012L48.7812 58.1154C48.1071 57.4413 48.1071 56.3515 48.7812 55.6774C49.4553 55.0033 50.5451 55.0033 51.2192 55.6774L56.6295 61.0876L65.8071 47.3188C66.3364 46.5274 67.4053 46.3118 68.1984 46.8411C68.9897 47.3704 69.2035 48.4393 68.676 49.2324L58.3312 64.7497C58.0449 65.1791 57.5794 65.4584 57.0674 65.5083C57.0087 65.5136 56.9535 65.5172 56.8967 65.5172Z" fill="white"/>
</svg>
