<svg width="60" height="62" viewBox="0 0 60 62" fill="none" xmlns="http://www.w3.org/2000/svg">
<path d="M52.7586 61.0345L60 40.3448H41.3793L52.7586 61.0345Z" fill="#0071BC"/>
<path d="M49.6552 9.31042H13.4483V56.8966H49.6552V9.31042Z" fill="#B2DECF"/>
<path d="M45.5173 5.17249H9.31039V48.6208H45.5173V5.17249Z" fill="#E6E6E6"/>
<path d="M52.7586 61.0345L41.3794 40.3448H0L11.3794 61.0345H52.7586Z" fill="#29ABE2"/>
<path d="M17.5862 12.4138C15.8721 12.4138 14.4827 11.0245 14.4827 9.31038V8.2759H16.5517V9.31038C16.5517 9.88139 17.0152 10.3449 17.5862 10.3449C18.1572 10.3449 18.6206 9.88139 18.6206 9.31038V4.13795C18.6206 2.99486 17.6948 2.06897 16.5517 2.06897C15.4086 2.06897 14.4827 2.99486 14.4827 4.13795V5.17243H12.4137V4.13795C12.4138 1.85273 14.2666 0 16.5517 0C18.8368 0 20.6896 1.85273 20.6896 4.13795V9.31038C20.6896 11.0245 19.3004 12.4138 17.5862 12.4138Z" fill="#0071BC"/>
<path d="M54.8276 22.7586H52.7586V8.27589C52.7586 7.1328 51.8327 6.20691 50.6896 6.20691H48.6206V4.13794H50.6896C52.9748 4.13794 54.8276 5.99067 54.8276 8.27589V22.7586Z" fill="#80CAEC"/>
<path d="M54.8276 24.8275H52.7586V26.8965H54.8276V24.8275Z" fill="#80CAEC"/>
<path d="M6.20691 20.6896H4.13794V35.1724H6.20691V20.6896Z" fill="#80CAEC"/>
<path d="M6.20691 16.5516H4.13794V18.6206H6.20691V16.5516Z" fill="#80CAEC"/>
<path d="M34.138 14.4828H30V10.3448H25.8621V14.4828H21.7241V18.6206H25.8621V22.7586H30V18.6206H34.138V14.4828Z" fill="#0071BC"/>
<path d="M17.5862 25.8621H15.5173V27.931H17.5862V25.8621Z" fill="#999999"/>
<path d="M41.3793 25.8621H19.6552V27.931H41.3793V25.8621Z" fill="#999999"/>
<path d="M41.3794 30H13.4484V32.069H41.3794V30Z" fill="#999999"/>
<path d="M37.2415 34.1379H13.4484V36.2069H37.2415V34.1379Z" fill="#999999"/>
<path d="M42.297 9.31042H40.169V11.3794H42.297V9.31042Z" fill="#999999"/>
<path d="M42.4139 13.4484H40.3449V15.5173H42.4139V13.4484Z" fill="#999999"/>
</svg>
