<svg width="60" height="59" viewBox="0 0 60 59" fill="none" xmlns="http://www.w3.org/2000/svg">
<path d="M54 32H9C7.343 32 6 30.657 6 29H57C57 30.657 55.657 32 54 32Z" fill="#E8E5DF"/>
<path d="M13 30H25C27.761 30 30 27.761 30 25V21.933C30 17 26.045 10 24.867 10H13.133C11.955 10 8 17 8 21.933V25C8 27.761 10.239 30 13 30Z" fill="#FEBE07"/>
<path d="M26.77 2.28094L24.68 3.32594C24.363 3.48494 23.978 3.39394 23.765 3.10994L22.44 1.34294C22.172 0.985935 21.65 0.948935 21.335 1.26394L19.597 3.00194C19.281 3.31794 18.76 3.28094 18.492 2.92294L17.307 1.34294C17.039 0.985935 16.517 0.948935 16.202 1.26394L14.172 3.29394C13.984 3.48194 13.708 3.55394 13.452 3.48094L10.417 2.61394C9.79199 2.43594 9.25999 3.09994 9.57199 3.67094L13 9.99994H25L27.775 3.21894C28.037 2.59194 27.378 1.97794 26.77 2.28094Z" fill="#FEBE07"/>
<path d="M25 30C27.761 30 30 27.761 30 25V21.933C30 17 26.045 10 24.867 10H13.133C12.465 10 19.493 10.431 23 16C25.677 20.251 25 30 25 30Z" fill="#E3A800"/>
<path d="M26.77 2.28094L25.356 2.98794C22.609 5.74394 19.157 7.70994 15.362 8.65894L12.642 9.33894L13 9.99994H25L27.775 3.21894C28.037 2.59194 27.378 1.97794 26.77 2.28094Z" fill="#E3A800"/>
<path d="M27 28H15C12.239 28 10 25.761 10 23V19.933C10 16.641 11.76 12.438 13.282 10H13.133C11.955 10 8 17 8 21.933V25C8 27.761 10.239 30 13 30H25C26.897 30 28.527 28.931 29.375 27.375C28.665 27.761 27.864 28 27 28Z" fill="#E3A800"/>
<path d="M33 2H43V30H33V2Z" fill="#CBE6FE"/>
<path d="M43 14L39 18L35 22H37V30H43V14Z" fill="#A9C6EB"/>
<path d="M27.3 14H24V30H33V14H27.3Z" fill="#CBE6FE"/>
<path d="M45 25H49V30H45V25Z" fill="#A9C6EB"/>
<path d="M55.707 28C54.661 28 53.704 28.591 53.236 29.527L53 30L50 36L43 39C43 36.791 41.209 35 39 35H24.602C19.007 35 13.552 36.748 9 40V55H32.606C37.438 55 42.172 53.642 46.269 51.081C52.464 47.21 56.725 40.893 57.994 33.7L58.428 31.242C58.726 29.551 57.425 28 55.707 28Z" fill="#FFE5CF"/>
<path d="M53 22H41V30H45V25H49V30H53V22Z" fill="#CBE6FE"/>
<path d="M55 22L47 14L43 18L39 22H55Z" fill="#E3A800"/>
<path d="M30 14H33V30H30V14Z" fill="#A9C6EB"/>
<path d="M11.079 38.6689C10.37 39.0829 9.672 39.5199 9 39.9999V54.9999H32.606L26.931 54.4749C18.465 53.6909 11.866 46.9789 11.079 38.6689Z" fill="#F5DCC7"/>
<path d="M21 18V17C21 16.448 20.553 16 20 16H19V15H17V16H16C15.447 16 15 16.448 15 17V20C15 20.552 15.447 21 16 21H19V22H15V23C15 23.552 15.447 24 16 24H17V25H19V24H20C20.553 24 21 23.552 21 23V20C21 19.448 20.553 19 20 19H17V18H21Z" fill="#FEFEFE"/>
<path d="M39 45H23V43H39C40.654 43 43 40.654 43 39L44 40C44 42.757 41.757 45 39 45Z" fill="#F5DCC7"/>
<path d="M36 5H37V7H36V5Z" fill="#2B67B3"/>
<path d="M39 5H40V7H39V5Z" fill="#2B67B3"/>
<path d="M36 9H37V11H36V9Z" fill="#2B67B3"/>
<path d="M39 9H40V11H39V9Z" fill="#2B67B3"/>
<path d="M36 13H37V15H36V13Z" fill="#2B67B3"/>
<path d="M39 13H40V15H39V13Z" fill="#2B67B3"/>
<path d="M27 17H28V19H27V17Z" fill="#2B67B3"/>
<path d="M30 17H31V19H30V17Z" fill="#2B67B3"/>
<path d="M27 21H28V23H27V21Z" fill="#2B67B3"/>
<path d="M30 21H31V23H30V21Z" fill="#2B67B3"/>
<path d="M27 25H28V27H27V25Z" fill="#2B67B3"/>
<path d="M30 25H31V27H30V25Z" fill="#2B67B3"/>
<path d="M36 17H37V19H36V17Z" fill="#2B67B3"/>
<path d="M39 17H40V19H39V17Z" fill="#2B67B3"/>
<path d="M51 2H53V4H51V2Z" fill="#FEBE07"/>
<path d="M53 0H55V2H53V0Z" fill="#FEBE07"/>
<path d="M55 2H57V4H55V2Z" fill="#FEBE07"/>
<path d="M53 4H55V6H53V4Z" fill="#FEBE07"/>
<path d="M58 7H60V9H58V7Z" fill="#FEBE07"/>
<path d="M51 10H53V12H51V10Z" fill="#FEBE07"/>
<path d="M0 9H2V11H0V9Z" fill="#FEBE07"/>
<path d="M2 7H4V9H2V7Z" fill="#FEBE07"/>
<path d="M4 9H6V11H4V9Z" fill="#FEBE07"/>
<path d="M2 11H4V13H2V11Z" fill="#FEBE07"/>
<path d="M0 17H2V19H0V17Z" fill="#FEBE07"/>
<path d="M4 0H6V2H4V0Z" fill="#FEBE07"/>
<path d="M8 35H2C1.448 35 1 35.448 1 36V58C1 58.552 1.448 59 2 59H8C8.552 59 9 58.552 9 58V36C9 35.448 8.552 35 8 35Z" fill="#2B67B3"/>
<path d="M5 42C4.448 42 4 41.552 4 41V40C4 39.448 4.448 39 5 39C5.552 39 6 39.448 6 40V41C6 41.552 5.552 42 5 42Z" fill="#FEFEFE"/>
</svg>
