<svg width="60" height="62" viewBox="0 0 60 62" fill="none" xmlns="http://www.w3.org/2000/svg">
<path d="M43.4483 0H16.5517V23.7931H9.31036L30 36.2069L50.6896 23.7931H43.4483V0Z" fill="#76BDF6"/>
<path d="M55.8621 13.4484H43.4483V17.5863H55.8622V44.4829H4.13795V17.5862H16.5518V13.4482H4.13795C1.85273 13.4482 0 15.301 0 17.5862V46.5517C0 48.8369 1.85273 50.6896 4.13795 50.6896H55.8621C58.1473 50.6896 60 48.8369 60 46.5517V17.5862C60 15.3011 58.1473 13.4484 55.8621 13.4484Z" fill="#3689C9"/>
<path d="M4.13794 44.4828H55.862V17.5862H43.4483V23.7931H50.6897L30 36.2069L9.31037 23.7931H16.5518V17.5862H4.13794V44.4828Z" fill="#FFDDBA"/>
<path d="M0 56.8966C0 60.3249 2.77862 61.0346 6.20692 61.0346H53.7931C57.2214 61.0346 60 60.3249 60 56.8966H0Z" fill="#3689C9"/>
<path d="M19.6552 56.8965H40.3449L37.2414 50.6896H22.7586L19.6552 56.8965Z" fill="#3689C9"/>
<path d="M36.2069 10.3449L31.0345 7.24146C30 10.3449 23.7931 10.3449 23.7931 10.3449C23.7931 13.7732 27.8059 16.5518 30 16.5518C32.1942 16.5518 36.2069 13.7731 36.2069 10.3449Z" fill="#FFDDBA"/>
<path d="M31.0345 7.24146L36.2069 10.3449C36.2069 6.91662 35.1724 3.10352 30 3.10352C24.8276 3.10352 23.7931 6.91662 23.7931 10.3449C23.7931 10.3449 30 10.3449 31.0345 7.24146Z" fill="#854F09"/>
<path d="M21.7241 24.8275V20.6896C21.7241 18.4044 23.5769 16.5516 25.8621 16.5516H34.138C36.4232 16.5516 38.2759 18.4044 38.2759 20.6896V24.8275H21.7241Z" fill="#3689C9"/>
<path d="M52.2413 37.7587H49.6551V35.1725H48.6206V37.7587H46.0344V38.7932H48.6206V41.3794H49.6551V38.7932H52.2413V37.7587Z" fill="#3689C9"/>
<g opacity="0.14">
<path opacity="0.14" d="M37.2414 50.6896H22.7586L22.2413 51.7241H22.7586H37.2414H37.7586L37.2414 50.6896Z" fill="black"/>
</g>
<g opacity="0.14">
<path opacity="0.14" d="M30 36.2069L12.7582 25.8621H9.31036L30 38.2759L50.6896 25.8621H47.2417L30 36.2069Z" fill="black"/>
</g>
</svg>
