<svg width="81" height="100" viewBox="0 0 81 100" fill="none" xmlns="http://www.w3.org/2000/svg">
<path d="M70.363 99.9998H5.21125C2.33318 99.9998 0 97.6666 0 94.7885V5.21125C0 2.33318 2.33318 0 5.21125 0H70.363C73.241 0 75.5742 2.33318 75.5742 5.21125V94.7885C75.5742 97.6666 73.241 99.9998 70.363 99.9998Z" fill="#FFEACF"/>
<path d="M13.2593 94.475V5.52476C13.2593 2.47347 15.7328 0 18.7841 0H5.52476C2.47347 0 0 2.47347 0 5.52476V94.4752C0 97.5265 2.47347 100 5.52476 100H18.7841C15.7328 99.9998 13.2593 97.5263 13.2593 94.475Z" fill="#FFD59A"/>
<path d="M64.1555 34.8856H11.4187C10.3202 34.8856 9.42987 33.9951 9.42987 32.8968C9.42987 31.7985 10.3204 30.908 11.4187 30.908H64.1555C65.2541 30.908 66.1444 31.7985 66.1444 32.8968C66.1444 33.9951 65.2541 34.8856 64.1555 34.8856Z" fill="#A56021"/>
<path d="M64.1555 45.9349H11.4187C10.3202 45.9349 9.42987 45.0444 9.42987 43.9461C9.42987 42.8478 10.3204 41.9573 11.4187 41.9573H64.1555C65.2541 41.9573 66.1444 42.8478 66.1444 43.9461C66.1444 45.0444 65.2541 45.9349 64.1555 45.9349Z" fill="#A56021"/>
<path d="M64.1555 56.9845H11.4187C10.3202 56.9845 9.42987 56.094 9.42987 54.9956C9.42987 53.8973 10.3204 53.0068 11.4187 53.0068H64.1555C65.2541 53.0068 66.1444 53.8973 66.1444 54.9956C66.1444 56.094 65.2541 56.9845 64.1555 56.9845Z" fill="#A56021"/>
<path d="M64.1555 68.0337H11.4187C10.3202 68.0337 9.42987 67.1432 9.42987 66.0449C9.42987 64.9466 10.3204 64.0561 11.4187 64.0561H64.1555C65.2541 64.0561 66.1444 64.9466 66.1444 66.0449C66.1444 67.1432 65.2541 68.0337 64.1555 68.0337Z" fill="#A56021"/>
<path d="M43.3118 79.0831H11.4187C10.3202 79.0831 9.42987 78.1926 9.42987 77.0943C9.42987 75.9959 10.3204 75.1054 11.4187 75.1054H43.3118C44.4103 75.1054 45.3006 75.9959 45.3006 77.0943C45.3006 78.1926 44.4103 79.0831 43.3118 79.0831Z" fill="#A56021"/>
<path d="M43.3118 23.836H11.4187C10.3202 23.836 9.42987 22.9455 9.42987 21.8472C9.42987 20.7489 10.3204 19.8584 11.4187 19.8584H43.3118C44.4103 19.8584 45.3006 20.7489 45.3006 21.8472C45.3006 22.9455 44.4103 23.836 43.3118 23.836Z" fill="#A56021"/>
<path d="M11.4187 75.1054C10.3202 75.1054 9.42987 75.9959 9.42987 77.0943C9.42987 78.1926 10.3204 79.0831 11.4187 79.0831H13.2593V75.1052H11.4187V75.1054Z" fill="#8C4C17"/>
<path d="M11.4187 64.0559C10.3202 64.0559 9.42987 64.9464 9.42987 66.0447C9.42987 67.143 10.3204 68.0335 11.4187 68.0335H13.2593V64.0557H11.4187V64.0559Z" fill="#8C4C17"/>
<path d="M11.4187 53.0066C10.3202 53.0066 9.42987 53.8971 9.42987 54.9954C9.42987 56.0937 10.3204 56.9842 11.4187 56.9842H13.2593V53.0063H11.4187V53.0066Z" fill="#8C4C17"/>
<path d="M11.4187 41.9571C10.3202 41.9571 9.42987 42.8476 9.42987 43.9459C9.42987 45.0442 10.3204 45.9347 11.4187 45.9347H13.2593V41.9568H11.4187V41.9571Z" fill="#8C4C17"/>
<path d="M11.4187 30.9077C10.3202 30.9077 9.42987 31.7982 9.42987 32.8966C9.42987 33.9949 10.3204 34.8854 11.4187 34.8854H13.2593V30.9075H11.4187V30.9077Z" fill="#8C4C17"/>
<path d="M11.4187 19.8584C10.3202 19.8584 9.42987 20.7489 9.42987 21.8472C9.42987 22.9456 10.3204 23.8361 11.4187 23.8361H13.2593V19.8582H11.4187V19.8584Z" fill="#8C4C17"/>
<path d="M63.4622 43.8225L62.4546 43.5323C61.1568 43.1584 60.4868 41.5176 60.9583 39.8673L65.6109 23.582C66.0824 21.9317 67.5166 20.8971 68.8144 21.2709L69.822 21.5612C71.1198 21.9352 71.7898 23.5759 71.3183 25.2262L66.6657 41.5116C66.1942 43.1617 64.76 44.1964 63.4622 43.8225Z" fill="#FFC34C"/>
<path d="M59.3564 65.2182L55.4083 79.3618L55.4502 79.5908L56.6096 83.8735C56.7487 84.3873 57.2692 84.5405 57.6523 84.1805L61.0204 81.0146L64.9685 66.871L59.3564 65.2182Z" fill="#FFEA63"/>
<path d="M57.7963 80.2522L57.7542 80.0232L61.6946 65.9067L59.3564 65.218L55.4083 79.3615L55.4504 79.5906L56.6098 83.8732C56.7489 84.3871 57.2694 84.5403 57.6525 84.1803L58.6147 83.2758L57.7963 80.2522Z" fill="#FFD551"/>
<path d="M55.962 81.8198L56.4956 83.7467C56.6472 84.2935 57.2137 84.4567 57.6308 84.0736L59.1002 82.7234L55.962 81.8198Z" fill="#A56021"/>
<path d="M62.4873 76.9448L55.9862 75.0731C55.3879 74.9009 55.0569 74.2214 55.247 73.5554L72.0825 14.5971C72.8075 12.0582 75.2445 10.5323 77.5256 11.189L77.9327 11.3061C80.2137 11.9629 81.4753 14.5536 80.7503 17.0925L63.9148 76.0507C63.7249 76.7169 63.0858 77.1172 62.4873 76.9448Z" fill="#FFA730"/>
<path d="M59.9153 76.1562C59.317 75.9841 58.986 75.3045 59.1761 74.6385L76.0116 15.6803C76.5317 13.8588 77.9339 12.5641 79.5267 12.2173C79.0802 11.8012 78.5447 11.4825 77.9329 11.3061L77.5258 11.189C75.2447 10.5322 72.8077 12.058 72.0827 14.5971L55.2472 73.5554C55.0571 74.2214 55.3879 74.9009 55.9864 75.0731L62.4875 76.9448C62.5874 76.9736 62.6885 76.985 62.7883 76.9834L59.9153 76.1562Z" fill="#E58D23"/>
<path d="M78.7281 24.2736L70.3301 21.9586C69.7197 21.7904 69.3612 21.1592 69.5294 20.5486L69.7333 19.809C69.9015 19.1987 70.5327 18.8402 71.1432 19.0084L79.5413 21.3234C80.1516 21.4916 80.5101 22.1228 80.3419 22.7334L80.1381 23.473C79.9698 24.0835 79.3384 24.4418 78.7281 24.2736Z" fill="#FFEA63"/>
<path d="M73.6817 21.5894L73.8322 21.043C74.0152 20.3793 74.6473 19.9745 75.2441 20.139L71.1184 19.0017C70.5216 18.8372 69.8896 19.242 69.7066 19.9057L69.5561 20.4521C69.3731 21.1158 69.7085 21.7874 70.3053 21.9519L74.4309 23.0892C73.8341 22.9245 73.4987 22.2531 73.6817 21.5894Z" fill="#FFD551"/>
<path d="M73.8839 34.7785C73.7739 34.7785 73.6621 34.7639 73.5508 34.7332C72.8848 34.5496 72.4938 33.8611 72.6774 33.1951L73.3701 30.682C73.5535 30.0162 74.2422 29.625 74.908 29.8086C75.574 29.9923 75.9651 30.6808 75.7814 31.3468L75.0888 33.8598C74.936 34.4145 74.4326 34.7785 73.8839 34.7785Z" fill="#FFC34C"/>
<path d="M68.9099 52.8225C68.7998 52.8225 68.6881 52.8079 68.5767 52.7773C67.9107 52.5937 67.5197 51.9051 67.7033 51.2391L71.7135 36.6916C71.8971 36.0258 72.5861 35.6348 73.2515 35.8182C73.9175 36.0019 74.3085 36.6904 74.1249 37.3564L70.1147 51.9039C69.9619 52.4586 69.4585 52.8225 68.9099 52.8225Z" fill="#FFC34C"/>
<path d="M18.7841 90.1868C20.6148 90.1868 22.0988 88.7027 22.0988 86.872C22.0988 85.0413 20.6148 83.5573 18.7841 83.5573C16.9534 83.5573 15.4693 85.0413 15.4693 86.872C15.4693 88.7027 16.9534 90.1868 18.7841 90.1868Z" fill="#FFD59A"/>
<path d="M26.0748 96.8166C27.9055 96.8166 29.3896 95.3325 29.3896 93.5018C29.3896 91.6711 27.9055 90.187 26.0748 90.187C24.2441 90.187 22.7601 91.6711 22.7601 93.5018C22.7601 95.3325 24.2441 96.8166 26.0748 96.8166Z" fill="#FFD59A"/>
<path d="M72.1542 91.4375C71.4636 91.4375 70.9035 90.8777 70.9035 90.1868V57.026C70.9035 56.3352 71.4636 55.7753 72.1542 55.7753C72.8448 55.7753 73.4049 56.3352 73.4049 57.026V90.1871C73.4049 90.8777 72.8448 91.4375 72.1542 91.4375Z" fill="#FCF9DE"/>
</svg>
