<svg width="100" height="100" viewBox="0 0 100 100" fill="none" xmlns="http://www.w3.org/2000/svg">
<path d="M84.5184 52.9297H85.7895C93.2602 52.9297 100 47.3739 100 39.8575V37.4481C100 32.2578 95.7726 28.2417 90.7944 28.2417H84.5184C82.9002 28.2417 81.5887 29.554 81.5887 31.1714V50C81.5887 51.6182 82.9002 52.9297 84.5184 52.9297Z" fill="#FFA096"/>
<path d="M15.4816 52.9297H14.2105C6.73981 52.9297 0 47.374 0 39.8575V37.4481C0 32.2578 4.22745 28.2425 9.20563 28.2425H15.4816C17.0998 28.2425 18.4113 29.554 18.4113 31.1722V50C18.4113 51.6182 17.0998 52.9297 15.4816 52.9297Z" fill="#FFB7AE"/>
<path d="M71.9666 100H28.0334C26.416 100 25.1038 98.6885 25.1038 97.0703V74.0577C25.1038 72.4395 26.416 71.1281 28.0334 71.1281H71.9666C73.584 71.1281 74.8962 72.4395 74.8962 74.0577V97.0703C74.8962 98.6885 73.584 100 71.9666 100Z" fill="#FFCEC5"/>
<path d="M71.9666 71.1281H50V100H71.9666C73.584 100 74.8962 98.6885 74.8962 97.0703V74.0577C74.8962 72.4395 73.584 71.1281 71.9666 71.1281Z" fill="#FFB7AE"/>
<path d="M50 87.4481C45.311 87.4481 40.7722 86.0733 36.8736 83.474L17.3546 70.4559C14.3478 68.4502 12.5519 65.0986 12.5519 61.4914V28.1036C12.5519 16.9716 21.6087 7.91473 32.7408 7.91473H67.2585C78.3913 7.91473 87.4474 16.9716 87.4474 28.1036V61.4914C87.4474 65.0986 85.6522 68.4502 82.6447 70.4559L63.1271 83.4732C59.2278 86.0733 54.689 87.4481 50 87.4481Z" fill="#FFE5DD"/>
<path d="M39.2769 36.9309C36.1664 35.3768 32.4532 35.3768 29.3434 36.9309C27.8961 37.6534 26.1368 37.0667 25.4128 35.6194C24.6903 34.1721 25.277 32.412 26.7242 31.6887C31.4743 29.3167 37.1452 29.3167 41.8953 31.6887C43.3426 32.412 43.9301 34.1721 43.2068 35.6194C42.4812 37.0713 40.7196 37.6518 39.2769 36.9309Z" fill="#FFB7AE"/>
<path d="M87.4474 20.1897V28.1036C87.4313 28.83 87.1445 29.5509 86.5898 30.1056C85.4492 31.2462 83.593 31.2515 82.4471 30.1056L73.7442 21.402L52.9297 18.8011V21.7575C52.9297 23.5237 51.3794 24.8848 49.6368 24.6643L25.9552 21.7049L17.5529 30.1056C16.4101 31.25 14.5546 31.25 13.4102 30.1056C12.8555 29.5509 12.5687 28.83 12.5526 28.1036V20.1897C12.5526 9.05685 21.6095 0 32.74 0H67.26C78.3905 0 87.4474 9.05685 87.4474 20.1897Z" fill="#00347B"/>
<path d="M60.7231 36.9309C63.8336 35.3768 67.5468 35.3768 70.6566 36.9309C72.1039 37.6534 73.8632 37.0667 74.5873 35.6194C75.3098 34.1721 74.7231 32.412 73.2758 31.6887C68.5257 29.3167 62.8548 29.3167 58.1047 31.6887C56.6574 32.412 56.0699 34.1721 56.7932 35.6194C57.5188 37.0713 59.2804 37.6518 60.7231 36.9309Z" fill="#FFA096"/>
<path d="M50 71.7575C38.0028 71.7575 28.2425 61.9972 28.2425 50C28.2425 48.3818 29.554 47.0703 31.1722 47.0703H68.8278C70.446 47.0703 71.7575 48.3818 71.7575 50C71.7575 61.9972 61.9972 71.7575 50 71.7575Z" fill="#FFCEC5"/>
<path d="M71.7575 50C71.7575 48.3818 70.446 47.0703 68.8278 47.0703H50V71.7575C61.9972 71.7575 71.7575 61.9972 71.7575 50Z" fill="#FFB7AE"/>
<path d="M34.3719 52.9297C35.7506 60.3012 42.234 65.8981 50 65.8981C57.766 65.8981 64.2494 60.3012 65.6281 52.9297H34.3719Z" fill="white"/>
<path d="M50 52.9297V65.8981C57.766 65.8981 64.2494 60.3012 65.6281 52.9297H50Z" fill="#FFF3F3"/>
</svg>
