<svg width="60" height="54" viewBox="0 0 60 54" fill="none" xmlns="http://www.w3.org/2000/svg">
<path d="M45.7895 4.73689H25.7895L22.1958 1.14321C21.801 0.748472 21.2653 0.526367 20.7074 0.526367H6.8421C5.67894 0.526367 4.73683 1.46847 4.73683 2.63163V4.73689C2.41157 4.73689 0.526306 6.62216 0.526306 8.94742V48.9474C0.526306 51.2727 2.41157 53.1579 4.73683 53.1579H45.7895C48.1147 53.1579 50 51.2727 50 48.9474V8.94742C50 6.62216 48.1147 4.73689 45.7895 4.73689Z" fill="#DB8E11"/>
<path d="M45.7895 53.6842H4.73684C2.12526 53.6842 0 51.5589 0 48.9474V8.94737C0 6.51368 1.84526 4.50211 4.21053 4.24V2.63158C4.21053 1.18105 5.39158 0 6.84211 0H20.7063C21.4095 0 22.0705 0.273684 22.5674 0.770526L26.0074 4.21053H45.7895C48.4011 4.21053 50.5263 6.33579 50.5263 8.94737V48.9474C50.5263 51.5589 48.4011 53.6842 45.7895 53.6842ZM6.84211 1.05263C5.97158 1.05263 5.26316 1.76105 5.26316 2.63158V4.73684C5.26316 5.02737 5.02737 5.26316 4.73684 5.26316C2.70526 5.26316 1.05263 6.91579 1.05263 8.94737V48.9474C1.05263 50.979 2.70526 52.6316 4.73684 52.6316H45.7895C47.8211 52.6316 49.4737 50.979 49.4737 48.9474V8.94737C49.4737 6.91579 47.8211 5.26316 45.7895 5.26316H25.7895C25.6495 5.26316 25.5158 5.20737 25.4168 5.10947L21.8232 1.51579C21.5253 1.21684 21.1284 1.05263 20.7063 1.05263H6.84211Z" fill="#212A41"/>
<path d="M3.6842 11.0526H54.2105V48.9473H3.6842V11.0526Z" fill="#E0E0E0"/>
<path d="M54.2105 49.4737H3.68421C3.39369 49.4737 3.1579 49.2379 3.1579 48.9474V11.0527C3.1579 10.7622 3.39369 10.5264 3.68421 10.5264H54.2105C54.5011 10.5264 54.7368 10.7622 54.7368 11.0527V48.9474C54.7368 49.2379 54.5011 49.4737 54.2105 49.4737ZM4.21053 48.4211H53.6842V11.579H4.21053V48.4211Z" fill="#212A41"/>
<path d="M6.8421 8.94739H57.3684V45.7895H6.8421V8.94739Z" fill="#E0E0E0"/>
<path d="M57.3684 46.3158H6.84211C6.55159 46.3158 6.3158 46.08 6.3158 45.7894V8.94734C6.3158 8.65681 6.55159 8.42102 6.84211 8.42102H57.3684C57.659 8.42102 57.8947 8.65681 57.8947 8.94734V45.7894C57.8947 46.08 57.659 46.3158 57.3684 46.3158ZM7.36843 45.2631H56.8421V9.47365H7.36843V45.2631Z" fill="#212A41"/>
<path d="M59.4737 48.9473C59.4737 51.2726 57.5884 53.1578 55.2632 53.1578H5.78949C8.11475 53.1578 10 51.2726 10 48.9473V17.3684C10 15.0431 11.8853 13.1578 14.2105 13.1578H55.2632C57.5884 13.1578 59.4737 15.0431 59.4737 17.3684V48.9473Z" fill="#F9AC2F"/>
<path d="M55.2632 53.6842H5.7895C5.49897 53.6842 5.26318 53.4484 5.26318 53.1579C5.26318 52.8674 5.49897 52.6316 5.7895 52.6316C7.82108 52.6316 9.47371 50.979 9.47371 48.9474V17.3684C9.47371 14.7569 11.599 12.6316 14.2106 12.6316H55.2632C57.8748 12.6316 60 14.7569 60 17.3684V48.9474C60 51.559 57.8748 53.6842 55.2632 53.6842ZM8.76424 52.6316H55.2632C57.2948 52.6316 58.9474 50.979 58.9474 48.9474V17.3684C58.9474 15.3369 57.2948 13.6842 55.2632 13.6842H14.2106C12.179 13.6842 10.5263 15.3369 10.5263 17.3684V48.9474C10.5263 50.4337 9.83792 51.7621 8.76424 52.6316Z" fill="#212A41"/>
<path d="M12.1052 49.4737C11.8147 49.4737 11.5789 49.238 11.5789 48.9474V17.3685C11.5789 17.078 11.8147 16.8422 12.1052 16.8422C12.3958 16.8422 12.6316 17.078 12.6316 17.3685V48.9474C12.6316 49.238 12.3958 49.4737 12.1052 49.4737Z" fill="#FFCA4D"/>
<path d="M57.3684 49.4737C57.0779 49.4737 56.8421 49.238 56.8421 48.9474V17.3685C56.8421 17.078 57.0779 16.8422 57.3684 16.8422C57.6589 16.8422 57.8947 17.078 57.8947 17.3685V48.9474C57.8947 49.238 57.6589 49.4737 57.3684 49.4737Z" fill="#DB8E11"/>
<path d="M45.2632 33.1579C45.2632 32.3727 45.1705 31.6106 45.0074 30.8748L46.3432 30.1032C46.8463 29.8127 47.0189 29.1685 46.7284 28.6653L44.6232 25.019C44.3326 24.5158 43.6884 24.3432 43.1853 24.6337L41.8432 25.4085C40.721 24.379 39.3832 23.5822 37.8947 23.1148V21.579C37.8947 20.9979 37.4232 20.5264 36.8421 20.5264H32.6316C32.0505 20.5264 31.5789 20.9979 31.5789 21.579V23.1148C30.0905 23.5822 28.7526 24.379 27.6305 25.4085C27.6305 25.4085 26.9137 24.9948 26.2884 24.6337C25.7853 24.3432 25.1411 24.5158 24.8505 25.019L22.7453 28.6653C22.4547 29.1685 22.6274 29.8127 23.1305 30.1032L24.4663 30.8748C24.3032 31.6106 24.2105 32.3727 24.2105 33.1579C24.2105 33.9432 24.3032 34.7053 24.4663 35.4411L23.1305 36.2127C22.6274 36.5032 22.4547 37.1474 22.7453 37.6506L24.8505 41.2969C25.1411 41.8001 25.7853 41.9727 26.2884 41.6822L27.6305 40.9074C28.7526 41.9369 30.0905 42.7337 31.5789 43.2011V44.7369C31.5789 45.3179 32.0505 45.7895 32.6316 45.7895H36.8421C37.4232 45.7895 37.8947 45.3179 37.8947 44.7369V43.2011C39.3832 42.7337 40.721 41.9369 41.8432 40.9074C41.8432 40.9074 42.56 41.3211 43.1853 41.6822C43.6884 41.9727 44.3326 41.8001 44.6232 41.2969L46.7284 37.6506C47.0189 37.1474 46.8463 36.5032 46.3432 36.2127L45.0074 35.4411C45.1705 34.7053 45.2632 33.9432 45.2632 33.1579ZM35.7368 39.3969C31.4684 40.0516 27.8432 36.4274 28.4979 32.1579C28.9053 29.499 31.0779 27.3264 33.7368 26.919C38.0063 26.2643 41.6305 29.8885 40.9758 34.1579C40.5684 36.8169 38.3958 38.9895 35.7368 39.3969Z" fill="#B7C0D7"/>
<path d="M36.8421 46.3158H32.6316C31.7611 46.3158 31.0526 45.6074 31.0526 44.7368V43.58C29.7811 43.1305 28.6105 42.4505 27.5653 41.5526L26.5516 42.1379C26.1863 42.3495 25.7611 42.4032 25.3537 42.2958C24.9463 42.1863 24.6063 41.9242 24.3947 41.5589L22.2895 37.9137C21.8537 37.16 22.1137 36.1926 22.8663 35.7568L23.8747 35.1758C23.7484 34.4979 23.6842 33.8211 23.6842 33.1579C23.6842 32.4947 23.7484 31.8179 23.8747 31.14L22.8674 30.5589C22.1137 30.1232 21.8547 29.1558 22.2895 28.4021L24.3947 24.7558C24.6053 24.3905 24.9453 24.1295 25.3537 24.02C25.76 23.9105 26.1863 23.9663 26.5516 24.1779L27.5653 24.7632C28.6105 23.8653 29.78 23.1853 31.0526 22.7358V21.5789C31.0526 20.7084 31.7611 20 32.6316 20H36.8421C37.7126 20 38.4211 20.7084 38.4211 21.5789V22.7358C39.6926 23.1853 40.8632 23.8653 41.9084 24.7632L42.9221 24.1779C43.2874 23.9663 43.7126 23.9126 44.12 24.02C44.5274 24.1295 44.8674 24.3916 45.079 24.7568L47.1842 28.4021C47.62 29.1558 47.36 30.1232 46.6074 30.5589L45.599 31.14C45.7253 31.8179 45.7895 32.4947 45.7895 33.1579C45.7895 33.8211 45.7253 34.4979 45.599 35.1758L46.6063 35.7568C47.36 36.1926 47.619 37.16 47.1842 37.9137L45.079 41.56C44.8684 41.9253 44.5284 42.1863 44.12 42.2958C43.7148 42.4053 43.2874 42.3495 42.9221 42.1379L41.9084 41.5526C40.8632 42.4505 39.6937 43.1305 38.4211 43.58V44.7368C38.4211 45.6074 37.7126 46.3158 36.8421 46.3158ZM27.6305 40.3811C27.759 40.3811 27.8874 40.4284 27.9863 40.5189C29.0874 41.5295 30.3495 42.2632 31.7369 42.6979C31.9558 42.7663 32.1053 42.9705 32.1053 43.2V44.7368C32.1053 45.0274 32.3411 45.2632 32.6316 45.2632H36.8421C37.1326 45.2632 37.3684 45.0274 37.3684 44.7368V43.2011C37.3684 42.9716 37.5179 42.7674 37.7369 42.6989C39.1253 42.2632 40.3863 41.5305 41.4874 40.52C41.6569 40.3642 41.9074 40.3379 42.1063 40.4516L43.4484 41.2263C43.5695 41.2958 43.7116 41.3147 43.8474 41.2789C43.9832 41.2421 44.0958 41.1547 44.1663 41.0337L46.2716 37.3874C46.4169 37.1358 46.3305 36.8137 46.079 36.6684L44.7432 35.8979C44.5442 35.7832 44.4432 35.5526 44.4926 35.3284C44.6548 34.5989 44.7369 33.8695 44.7369 33.1579C44.7369 32.4463 44.6548 31.7168 44.4937 30.9874C44.4442 30.7632 44.5453 30.5326 44.7442 30.4179L46.08 29.6474C46.3305 29.5021 46.4179 29.18 46.2726 28.9284L44.1674 25.2821C44.0969 25.16 43.9842 25.0726 43.8484 25.0368C43.7126 25 43.5705 25.0179 43.4495 25.0895L42.1074 25.8642C41.9084 25.9779 41.6579 25.9516 41.4884 25.7968C40.3874 24.7863 39.1253 24.0526 37.7379 23.6179C37.5179 23.5484 37.3684 23.3453 37.3684 23.1147V21.5789C37.3684 21.2884 37.1326 21.0526 36.8421 21.0526H32.6316C32.3411 21.0526 32.1053 21.2884 32.1053 21.5789V23.1147C32.1053 23.3442 31.9558 23.5484 31.7369 23.6168C30.3484 24.0526 29.0874 24.7853 27.9863 25.7958C27.8169 25.9516 27.5663 25.9779 27.3674 25.8642L26.0253 25.0895C25.9042 25.02 25.7621 25.0011 25.6263 25.0368C25.4905 25.0737 25.3779 25.1611 25.3074 25.2821L23.2021 28.9284C23.0569 29.18 23.1432 29.5021 23.3947 29.6474L24.7305 30.4179C24.9295 30.5326 25.0305 30.7632 24.9811 30.9874C24.819 31.7168 24.7369 32.4463 24.7369 33.1579C24.7369 33.8695 24.819 34.5989 24.98 35.3284C25.0295 35.5526 24.9284 35.7832 24.7295 35.8979L23.3937 36.6684C23.1432 36.8137 23.0558 37.1358 23.2011 37.3874L25.3063 41.0337C25.3769 41.1558 25.4895 41.2432 25.6253 41.2789C25.76 41.3158 25.9021 41.2968 26.0242 41.2263L27.3663 40.4516C27.4495 40.4042 27.54 40.3811 27.6305 40.3811ZM34.7326 40C32.919 40 31.2 39.2968 29.899 37.9958C28.3411 36.4379 27.64 34.28 27.9779 32.0779C28.4232 29.1779 30.759 26.8432 33.6579 26.3979C35.8579 26.0579 38.0158 26.76 39.5758 28.3179C41.1347 29.8758 41.8347 32.0337 41.4979 34.2358C41.0526 37.1347 38.7169 39.4705 35.8179 39.9158C35.4537 39.9726 35.0905 40 34.7326 40ZM35.7369 39.3968H35.7474H35.7369ZM34.7379 27.3684C34.4326 27.3684 34.1253 27.3916 33.8169 27.4389C31.3674 27.8147 29.3947 29.7874 29.0179 32.2379C28.7316 34.1053 29.3242 35.9326 30.6432 37.2516C31.9611 38.5705 33.7884 39.1632 35.6569 38.8768C38.1063 38.5011 40.08 36.5274 40.4558 34.0779C40.7421 32.2105 40.1495 30.3821 38.8305 29.0632C37.7295 27.9632 36.2737 27.3684 34.7379 27.3684Z" fill="#212A41"/>
</svg>
