<svg width="100" height="100" viewBox="0 0 100 100" fill="none" xmlns="http://www.w3.org/2000/svg">
<path fill-rule="evenodd" clip-rule="evenodd" d="M18.7076 3.02918V24.7189V36.9044L49.9971 49.9855L81.2867 36.9044V24.7189V3.02918C81.2867 1.36338 79.9235 0 78.2581 0H21.7362C20.0706 0 18.7076 1.36338 18.7076 3.02918Z" fill="#F3EAE6"/>
<path fill-rule="evenodd" clip-rule="evenodd" d="M70.661 3.02918V24.7189V36.9044H74.7503H76.199V29.8076C76.199 27.0123 78.4918 24.7189 81.2865 24.7189V3.02918C81.2867 1.36338 79.9236 0 78.2582 0H67.6324C69.298 0 70.661 1.36338 70.661 3.02918Z" fill="#E0D2CE"/>
<path fill-rule="evenodd" clip-rule="evenodd" d="M13.6201 29.8078V36.9046L18.7077 41.012L23.7952 36.9046V29.8078C23.7952 27.0124 21.5081 24.7191 18.7077 24.7191C15.9129 24.7191 13.6201 27.0124 13.6201 29.8078Z" fill="#6BD9E7"/>
<path fill-rule="evenodd" clip-rule="evenodd" d="M76.1992 29.8078V36.9046L81.2867 41.2517L86.3742 36.9046V29.8078C86.3742 27.0124 84.0871 24.7191 81.2867 24.7191C78.4919 24.7191 76.1992 27.0124 76.1992 29.8078Z" fill="#6BD9E7"/>
<path fill-rule="evenodd" clip-rule="evenodd" d="M18.7077 29.8078V36.9046H23.7952V29.8078C23.7952 27.0124 21.5081 24.7191 18.7077 24.7191C17.7837 24.7191 16.9167 24.9702 16.1638 25.4094C17.6809 26.2879 18.7077 27.9366 18.7077 29.8078Z" fill="#00C7DD"/>
<path fill-rule="evenodd" clip-rule="evenodd" d="M78.7428 25.4092C80.2599 26.2877 81.2867 27.9364 81.2867 29.8076V36.9044H86.3742V29.8076C86.3742 27.0123 84.0871 24.7189 81.2867 24.7189C80.3627 24.7191 79.4957 24.97 78.7428 25.4092Z" fill="#00C7DD"/>
<path fill-rule="evenodd" clip-rule="evenodd" d="M0 42.8206V83.3819C0 86.6336 2.65775 89.2922 5.90885 89.2922H91.7185H94.0855C97.3366 89.2922 100 86.6338 100 83.3819V42.8206C100 39.5688 97.3364 36.9047 94.0855 36.9047C70.393 36.9047 29.6014 36.9047 5.90885 36.9047C2.65775 36.9047 0 39.5688 0 42.8206H0Z" fill="#B8ACAC"/>
<path fill-rule="evenodd" clip-rule="evenodd" d="M80.665 42.8206V76.9982H82.7696H90.3439C91.0968 76.9982 91.7185 77.6143 91.7185 78.3731V89.2922H94.0855C97.3366 89.2922 100 86.6338 100 83.3819V42.8206C100 39.5688 97.3364 36.9047 94.0855 36.9047H86.3742H81.2867H76.1992H74.7505C78.0072 36.9047 80.665 39.5688 80.665 42.8206Z" fill="#9D9696"/>
<path fill-rule="evenodd" clip-rule="evenodd" d="M8.49818 78.373V89.2921H91.7183V78.373C91.7183 77.6143 91.0966 76.9982 90.3437 76.9982H9.87283C9.11991 76.9982 8.49818 77.6143 8.49818 78.373Z" fill="#746E6E"/>
<path fill-rule="evenodd" clip-rule="evenodd" d="M17.8805 76.9982L15.8672 89.2919L14.293 98.8933C14.196 99.4809 14.601 100 14.9831 100H85.667C86.0491 100 86.4598 99.4809 86.3628 98.8933L84.7886 89.2921L82.7694 76.9982H17.8805Z" fill="#F3EAE6"/>
<path fill-rule="evenodd" clip-rule="evenodd" d="M17.8805 76.9982L16.871 83.1481H76.3018L77.3113 89.2921L78.3207 95.442L79.068 100H85.667C86.0491 100 86.4598 99.4809 86.3628 98.8933L84.7886 89.2921L82.7694 76.9982H80.6648H17.8805Z" fill="#E0D2CE"/>
<path d="M91.2394 56.0473H85.5358C84.7022 56.0473 84.0267 55.3716 84.0267 54.5382C84.0267 53.7048 84.7022 53.0292 85.5358 53.0292H91.2394C92.073 53.0292 92.7485 53.7048 92.7485 54.5382C92.7485 55.3716 92.073 56.0473 91.2394 56.0473Z" fill="#FF5050"/>
<path d="M91.2394 66.3046H85.5358C84.7022 66.3046 84.0267 65.6289 84.0267 64.7955C84.0267 63.9621 84.7022 63.2865 85.5358 63.2865H91.2394C92.073 63.2865 92.7485 63.9621 92.7485 64.7955C92.7485 65.6289 92.073 66.3046 91.2394 66.3046Z" fill="#FF5050"/>
<path d="M73.2334 90.8009H26.761C25.9274 90.8009 25.252 90.1253 25.252 89.2919C25.252 88.4585 25.9274 87.7828 26.761 87.7828H73.2334C74.067 87.7828 74.7425 88.4585 74.7425 89.2919C74.7425 90.1253 74.0668 90.8009 73.2334 90.8009Z" fill="#746E6E"/>
<path fill-rule="evenodd" clip-rule="evenodd" d="M27.0233 57.0883H71.5223C72.9766 57.0883 74.1629 55.9018 74.1629 54.4471V49.6664C74.1629 49.1358 73.7295 48.6966 73.1933 48.6966H53.0885H46.9114H25.3521C24.8217 48.6966 24.3824 49.1358 24.3824 49.6664V54.4471C24.3824 55.9016 25.5746 57.0883 27.0233 57.0883Z" fill="#6BD9E7"/>
<path fill-rule="evenodd" clip-rule="evenodd" d="M62.7389 57.0883H71.5224C72.9767 57.0883 74.163 55.9018 74.163 54.4471V49.6664C74.163 49.1358 73.7296 48.6966 73.1934 48.6966H64.4099C64.9461 48.6966 65.3795 49.1358 65.3795 49.6664V54.4471C65.3795 55.9016 64.1932 57.0883 62.7389 57.0883Z" fill="#00C7DD"/>
</svg>
