<svg width="51" height="80" viewBox="0 0 51 80" fill="none" xmlns="http://www.w3.org/2000/svg">
<path d="M0.545471 15.3143V42.7887C0.545471 47.0846 4.02813 50.5673 8.32406 50.5673H32.6984C36.9944 50.5673 40.477 47.0846 40.477 42.7887V15.3143H0.545471Z" fill="#AC5E2E"/>
<path d="M40.4778 15.3036V42.7955C40.4778 47.0934 36.9934 50.578 32.6931 50.578H29.9164C34.2144 50.578 37.6989 47.0936 37.6989 42.7955V15.3036H40.4778Z" fill="#9E5528"/>
<path d="M38.9465 79.9999H2.05077V62.6174C2.05077 55.1935 8.06905 49.1754 15.4928 49.1754H25.5045C32.9284 49.1754 38.9465 55.1937 38.9465 62.6174V79.9999Z" fill="#8AC9FE"/>
<path d="M38.9462 62.6182V79.9997H36.3686V62.6182C36.3686 55.1928 30.3514 49.1757 22.9261 49.1757H25.5037C32.9291 49.1757 38.9462 55.193 38.9462 62.6182Z" fill="#60B7FF"/>
<path d="M11.2323 65.447V79.9993H8.81844V65.447C8.81844 64.7807 9.35922 64.2401 10.0253 64.2401C10.6917 64.2401 11.2323 64.7807 11.2323 65.447Z" fill="#4BB1F7"/>
<path d="M32.1783 65.447V79.9993H29.7644V65.447C29.7644 64.7807 30.305 64.2401 30.9712 64.2401C31.6391 64.2401 32.1783 64.7807 32.1783 65.447Z" fill="#4BB1F7"/>
<path d="M24.1231 43.0884V50.5787C24.1231 51.0231 23.9673 51.4534 23.683 51.7949L21.787 54.0714C21.2134 55.0621 19.7845 55.0621 19.2109 54.0714L17.3139 51.7951C17.0292 51.4535 16.8734 51.0231 16.8734 50.5784V43.0884H24.1231Z" fill="#EA9B58"/>
<path d="M16.8734 43.0884H24.1231V46.2285H16.8734V43.0884Z" fill="#DD8747"/>
<path d="M41.6991 68.9831C46.392 68.9831 50.1964 65.1787 50.1964 60.4857C50.1964 55.7928 46.392 51.9884 41.6991 51.9884C37.0061 51.9884 33.2017 55.7928 33.2017 60.4857C33.2017 65.1787 37.0061 68.9831 41.6991 68.9831Z" fill="#FEC165"/>
<path d="M42.4564 55.982L43.3619 57.8167C43.4212 57.937 43.5361 58.0206 43.6691 58.0398L45.6937 58.334C46.3864 58.4346 46.6631 59.2859 46.1619 59.7746L44.6967 61.2028C44.6006 61.2965 44.5567 61.4315 44.5794 61.5638L44.9253 63.5804C45.0436 64.2704 44.3195 64.7965 43.6998 64.4707L41.8889 63.5187C41.7701 63.4562 41.6281 63.4562 41.5092 63.5187L39.6983 64.4707C39.0787 64.7965 38.3545 64.2704 38.4728 63.5804L38.8187 61.5638C38.8414 61.4315 38.7976 61.2965 38.7014 61.2028L37.2362 59.7746C36.735 59.286 37.0116 58.4348 37.7044 58.334L39.7291 58.0398C39.8619 58.0204 39.9767 57.937 40.0362 57.8167L40.9417 55.982C41.2514 55.3543 42.1466 55.3543 42.4564 55.982Z" fill="#FE9901"/>
<path d="M44.6969 61.2026C44.6 61.2967 44.5572 61.4306 44.58 61.5631L44.9248 63.5806C45.0431 64.2703 44.3192 64.7961 43.6995 64.4697L41.8886 63.5179C41.7703 63.4553 41.6278 63.4553 41.5095 63.5179L39.6986 64.4697C39.0787 64.7959 38.355 64.2701 38.4733 63.5806L38.5517 63.1204C38.593 63.1076 38.6344 63.089 38.6756 63.0678C38.942 62.9276 39.2083 62.7875 39.4747 62.6472C39.8759 62.4359 40.2776 62.2201 40.7033 62.0612C41.0512 61.9314 41.4237 61.8804 41.7933 61.8665C42.1923 61.8515 42.782 62.1276 43.0292 61.6686C43.1053 61.5273 43.0816 61.33 43.1084 61.1765C43.2337 60.4634 43.6423 59.8287 44.1669 59.3272C44.4958 59.0137 44.8133 58.6884 45.1387 58.3712C45.173 58.337 45.2042 58.3028 45.23 58.2657L45.6945 58.3342C46.387 58.4339 46.6634 59.2861 46.1619 59.7747L44.6969 61.2026Z" fill="#FB8801"/>
<path d="M37.3352 24.2163H37.1166V17.2505H3.90672V24.2163H3.68812C1.65125 24.2163 0 25.8675 0 27.9044C0 29.9413 1.65125 31.5925 3.68812 31.5925H3.90672V31.7106C3.90672 38.3306 9.27328 43.6974 15.8934 43.6974H25.13C31.75 43.6974 37.1167 38.3308 37.1167 31.7106V31.5925H37.3353C39.3722 31.5925 41.0234 29.9413 41.0234 27.9044C41.0233 25.8675 39.372 24.2163 37.3352 24.2163Z" fill="#F6A96C"/>
<path d="M41.0223 27.9041C41.0223 29.9404 39.3726 31.5924 37.334 31.5924H37.1161V31.7096C37.1161 38.3318 31.75 43.6979 25.1301 43.6979H22.4422C29.062 43.6979 34.4281 38.3318 34.4281 31.7096V17.2491H37.1161V24.2157H37.334C38.3534 24.2157 39.2765 24.6281 39.9422 25.2959C40.61 25.9638 41.0223 26.8871 41.0223 27.9041Z" fill="#EA9B58"/>
<path d="M41.0235 15.7164V27.4633C39.9047 27.5308 38.8163 27.4761 37.7585 27.3236C30.6202 26.2931 24.92 20.7953 21.4657 18.2109C20.8991 17.7856 20.1254 17.7856 19.5586 18.2109C15.5938 21.1789 8.66582 27.9577 0.000976562 27.4344V15.7164C0.00113281 7.03719 7.03676 0 15.7177 0H25.3071C27.6138 0 29.8032 0.495937 31.776 1.38844C32.0071 1.49437 32.235 1.60359 32.4614 1.71906C33.0264 2.00953 33.5722 2.33219 34.0955 2.68375C34.3043 2.82656 34.508 2.97266 34.7104 3.12203C34.7104 3.12359 34.7104 3.12359 34.7119 3.12203C34.9125 3.27453 35.11 3.42859 35.3043 3.58906C35.6927 3.90844 36.0652 4.24719 36.4199 4.60359C36.8646 5.04828 37.2819 5.51859 37.6719 6.01453C37.7489 6.1125 37.826 6.21203 37.9014 6.31312C38.0524 6.51531 38.1985 6.72078 38.3397 6.92953C38.5516 7.24422 38.7522 7.56516 38.9416 7.89422C39.0668 8.11406 39.1888 8.33562 39.3044 8.56203C39.42 8.78844 39.5308 9.01797 39.635 9.24906C39.7394 9.48188 39.8389 9.71609 39.9336 9.95375C40.6368 11.7387 41.0235 13.6827 41.0235 15.7164Z" fill="#AC5E2E"/>
<path d="M41.0227 15.7164V27.4633C39.9039 27.5308 38.8155 27.4761 37.7577 27.3236V17.4244C37.7578 8.74516 30.7222 0 22.043 0H25.3064C27.6131 0 29.8025 0.495937 31.7759 1.38875C32.6488 1.78359 33.4886 2.25016 34.2755 2.79734C34.6652 3.06828 35.0416 3.35828 35.4042 3.66547C36.0561 4.21844 36.6652 4.82234 37.2231 5.47016C38.3927 6.82812 39.2709 8.27266 39.9331 9.95391C40.6359 11.7388 41.0227 13.6827 41.0227 15.7164Z" fill="#9E5528"/>
<path d="M20.4986 39.4816C18.7839 39.4816 17.2445 38.4612 16.5765 36.8819C16.3098 36.2513 16.6048 35.5238 17.2356 35.2569C17.8659 34.9902 18.5939 35.2852 18.8606 35.916C19.1395 36.5755 19.7825 37.0018 20.4987 37.0018C21.215 37.0018 21.858 36.5755 22.1369 35.916C22.4037 35.2854 23.1311 34.9902 23.7619 35.2569C24.3925 35.5237 24.6876 36.2512 24.4209 36.8819C23.7528 38.4613 22.2133 39.4816 20.4986 39.4816Z" fill="#5A5A5A"/>
<path d="M14.2872 31.4687C13.6023 31.4687 13.0473 30.9136 13.0473 30.2289V27.7678C13.0473 27.083 13.6025 26.528 14.2872 26.528C14.9719 26.528 15.527 27.0831 15.527 27.7678V30.2289C15.527 30.9136 14.9719 31.4687 14.2872 31.4687Z" fill="#5A5A5A"/>
<path d="M26.7101 31.4687C26.0253 31.4687 25.4703 30.9136 25.4703 30.2289V27.7678C25.4703 27.083 26.0253 26.528 26.7101 26.528C27.395 26.528 27.95 27.0831 27.95 27.7678V30.2289C27.95 30.9136 27.395 31.4687 26.7101 31.4687Z" fill="#5A5A5A"/>
</svg>
