<svg width="30" height="30" viewBox="0 0 30 30" fill="none" xmlns="http://www.w3.org/2000/svg">
<g clip-path="url(#clip0_3887_4846)">
<path d="M30 0.9375V6.0627C30 6.58008 29.5805 7.0002 29.0625 7.0002H21.9375C21.4195 7.0002 21 6.58008 21 6.0627V0.9375C21 0.418418 21.42 0 21.9375 0H29.0625C29.5796 0 30 0.417949 30 0.9375Z" fill="#F8B64C"/>
<path d="M29.9998 0.9375V5.25H24.25C23.4215 5.25 22.75 4.57852 22.75 3.75V0H29.0623C29.5794 0 29.9998 0.417949 29.9998 0.9375Z" fill="#FFD15C"/>
<path d="M29.7093 0.258398L25.4999 4.0002C22.2015 1.06793 23.1157 1.88057 21.2905 0.258398C21.4587 0.0984375 21.6866 0 21.9374 0H29.0624C29.3132 0 29.5411 0.0984375 29.7093 0.258398Z" fill="#FFE875"/>
<path d="M30 12.4377V17.5623C30 18.0802 29.5805 18.4998 29.0625 18.4998H21.9375C21.4195 18.4998 21 18.0802 21 17.5623V12.4377C21 11.919 21.4216 11.5002 21.9375 11.5002H29.0625C29.5782 11.5002 30 11.9188 30 12.4377Z" fill="#F8B64C"/>
<path d="M29.9998 12.4377V16.7502H24.25C23.4215 16.7502 22.75 16.0787 22.75 15.2502V11.5002H29.0623C29.5781 11.5002 29.9998 11.9188 29.9998 12.4377Z" fill="#FFD15C"/>
<path d="M29.7086 11.7592L25.4998 15.4998C23.3679 13.605 23.428 13.6585 21.291 11.7592C21.4592 11.5986 21.6865 11.5002 21.9373 11.5002H29.0623C29.3131 11.5002 29.5404 11.5986 29.7086 11.7592Z" fill="#FFE875"/>
<path d="M30 23.9373V29.0625C30 29.5805 29.5805 30 29.0625 30H21.9375C21.4195 30 21 29.5805 21 29.0625V23.9373C21 23.4204 21.4201 22.9998 21.9375 22.9998H29.0625C29.5794 22.9998 30 23.4198 30 23.9373Z" fill="#F8B64C"/>
<path d="M29.9998 23.9373V28.2498H24.25C23.4215 28.2498 22.75 27.5783 22.75 26.7498V22.9998H29.0623C29.5792 22.9998 29.9998 23.4198 29.9998 23.9373Z" fill="#FFD15C"/>
<path d="M29.7086 23.2588L25.4998 27C22.2395 24.1016 23.1353 24.8979 21.291 23.2588C21.4592 23.0982 21.6865 22.9998 21.9373 22.9998H29.0623C29.3131 22.9998 29.5404 23.0982 29.7086 23.2588Z" fill="#FFE875"/>
<path d="M12 21C12 21.8281 9.31377 22.5 6 22.5C2.68623 22.5 0 21.8281 0 21C0.0711328 20.7394 0.0144726 20.947 0.31623 19.8413C1.0643 17.0972 3.67641 15.3881 6.03873 15.5006C8.68008 15.517 10.9883 17.2908 11.6837 19.8413C11.7117 19.9437 11.9721 20.8975 12 21Z" fill="#CE4569"/>
<path d="M6 15.5C4.34777 15.5 3 14.1614 3 12.5V11C3 9.34317 4.34314 8.00003 6 8.00003C7.65223 8.00003 9 9.3386 9 11V12.5C9 14.1569 7.65686 15.5 6 15.5Z" fill="#F9C295"/>
<path d="M8.99972 10.9999C8.99972 12.5226 9.08334 13.0899 8.6522 13.9024C6.68802 14.9446 4.24969 13.5339 4.24969 11.2499C4.24969 9.72722 4.16608 9.15986 4.59721 8.3474C6.59351 7.28808 8.99972 8.74706 8.99972 10.9999Z" fill="#FFDFBA"/>
<path d="M11.9299 20.743C9.62439 21.1343 6.26087 21.0951 4.12871 20.5074C3.18869 20.2487 2.63246 19.2818 2.88933 18.3412C3.15623 17.36 3.67039 16.4691 4.38746 15.7455C7.55638 14.8009 10.8294 16.7081 11.6837 19.8412L11.9299 20.743Z" fill="#ED5575"/>
<path d="M18 15.9376C18.5178 15.9376 18.9375 15.5179 18.9375 15.0001C18.9375 14.4823 18.5178 14.0626 18 14.0626H15.9375V4.43756H18C18.5178 4.43756 18.9375 4.01785 18.9375 3.50006C18.9375 2.98227 18.5178 2.56256 18 2.56256H15C14.4823 2.56256 14.0625 2.98227 14.0625 3.50006V14.0626H12C11.4823 14.0626 11.0625 14.4823 11.0625 15.0001C11.0625 15.5179 11.4823 15.9376 12 15.9376H14.0625V26.0001C14.0625 26.5179 14.4823 26.9376 15 26.9376H18C18.5178 26.9376 18.9375 26.5179 18.9375 26.0001C18.9375 25.4823 18.5178 25.0626 18 25.0626H15.9375V15.9376H18Z" fill="#70BDFE"/>
</g>
<defs>
<clipPath id="clip0_3887_4846">
<rect width="30" height="30" fill="white"/>
</clipPath>
</defs>
</svg>
