<svg width="30" height="30" viewBox="0 0 30 30" fill="none" xmlns="http://www.w3.org/2000/svg">
<path d="M19.9219 5.39336C19.6627 5.39336 19.4531 5.18382 19.4531 4.92461V3.04492C19.4531 2.7857 19.6627 2.57617 19.9219 2.57617C20.1811 2.57617 20.3906 2.7857 20.3906 3.04492V4.92461C20.3906 5.18382 20.1811 5.39336 19.9219 5.39336Z" fill="#545C66"/>
<path d="M26.0156 5.39336C25.7564 5.39336 25.5469 5.18382 25.5469 4.92461V3.04492C25.5469 2.7857 25.7564 2.57617 26.0156 2.57617C26.2748 2.57617 26.4844 2.7857 26.4844 3.04492V4.92461C26.4844 5.18382 26.2748 5.39336 26.0156 5.39336Z" fill="#545C66"/>
<path d="M22.9688 18.0452C22.7095 18.0452 22.5 17.8356 22.5 17.5764V16.1758C22.5 15.9166 22.7095 15.707 22.9688 15.707C23.228 15.707 23.4375 15.9166 23.4375 16.1758V17.5764C23.4375 17.8356 23.228 18.0452 22.9688 18.0452Z" fill="#CCD1D9"/>
<path d="M22.9688 24.1436C22.7095 24.1436 22.5 23.9341 22.5 23.6748V20.8633C22.5 20.6041 22.7095 20.3945 22.9688 20.3945C23.228 20.3945 23.4375 20.6041 23.4375 20.8633V23.6748C23.4375 23.9341 23.228 24.1436 22.9688 24.1436Z" fill="#4A89DC"/>
<path d="M21.0938 26.0195C20.8345 26.0195 20.625 25.81 20.625 25.5508C20.625 25.2916 20.8345 25.082 21.0938 25.082C21.8691 25.082 22.5 24.4511 22.5 23.6758C22.5 23.4166 22.7095 23.207 22.9688 23.207C23.228 23.207 23.4375 23.4166 23.4375 23.6758C23.4375 24.9686 22.3861 26.0195 21.0938 26.0195Z" fill="#4A89DC"/>
<path d="M21.0938 26.0195H17.1099C16.8506 26.0195 16.6411 25.81 16.6411 25.5508C16.6411 25.2916 16.8506 25.082 17.1099 25.082H21.0938C21.353 25.082 21.5625 25.2916 21.5625 25.5508C21.5625 25.81 21.353 26.0195 21.0938 26.0195Z" fill="#4A89DC"/>
<path d="M27.4224 10.5469V14.7656L25.9974 16.1719H22.9692H19.9224L18.5161 14.7656V10.5469H27.4224Z" fill="#5D9CEC"/>
<path d="M27.4224 4.92578V10.5461H18.5161V4.92578H19.9224H26.0161H27.4224Z" fill="#E6E9ED"/>
<path d="M15.2349 8.20312V11.0156L13.3599 9.14062C13.3599 9.14062 11.2177 10.0781 8.67236 10.0781C6.12705 10.0781 3.98486 9.14062 3.98486 9.14062L2.10986 11.0109V8.67188C2.10986 5.55891 4.62705 3.04688 7.73486 3.04688H12.4224V5.39063C13.9786 5.39063 15.2349 6.64687 15.2349 8.20312Z" fill="#965353"/>
<path d="M15.2349 11.0156V8.20312C15.2349 6.64687 13.9786 5.39063 12.4224 5.39063V3.04688H10.5474V5.39063C10.5474 6.42609 11.3869 7.26563 12.4224 7.26563C12.9394 7.26563 13.3599 7.68563 13.3599 8.20312V9.14062L15.2349 11.0156Z" fill="#844747"/>
<path d="M11.4849 19.2891V21.3281L8.67236 25.0828L5.85986 21.3281V19.2891C6.71299 19.6964 7.66924 19.9219 8.67236 19.9219C9.67548 19.9219 10.6317 19.6969 11.4849 19.2891Z" fill="#EAC6BB"/>
<path d="M15.2349 11.0152V13.3589C15.2349 15.9745 13.7021 18.2339 11.4849 19.2886C10.6317 19.6959 9.67549 19.9214 8.67236 19.9214C7.66924 19.9214 6.71299 19.6964 5.85986 19.2886C3.64268 18.2339 2.10986 15.9745 2.10986 13.3589V13.3453V11.0109L3.98486 9.14062C3.98486 9.14062 6.12705 10.0781 8.67236 10.0781C11.2177 10.0781 13.3599 9.14062 13.3599 9.14062L15.2349 11.0152Z" fill="#EAC6BB"/>
<path d="M13.3598 9.14062L13.3579 9.14156V13.3594C13.3579 15.975 11.8251 18.2344 9.60795 19.2891C9.02623 19.5675 8.39389 19.7522 7.73389 19.8464C8.04139 19.8905 8.35311 19.9214 8.67232 19.9214C9.67545 19.9214 10.6317 19.6964 11.4848 19.2886C13.702 18.2339 15.2348 15.9745 15.2348 13.3589V11.0152L13.3598 9.14062Z" fill="#D3B1A9"/>
<path d="M17.1099 25.5501V27.4157H0.234863V24.6735V24.6074C0.234863 22.7938 1.70205 21.3262 3.51611 21.3262H5.85986L8.67236 25.0809L11.4849 21.3262H13.8286C15.6427 21.3262 17.1099 22.7938 17.1099 24.6074V24.6735V25.5501Z" fill="#48CFAD"/>
<path d="M13.8285 21.3281H11.9517C13.7657 21.3281 15.2329 22.7958 15.2329 24.6094V24.6755V25.5516V27.4172H17.1098V25.5516V24.6755V24.6094C17.1098 22.7958 15.6426 21.3281 13.8285 21.3281Z" fill="#37BC9B"/>
<path d="M29.2964 3.51562H17.1094C16.8502 3.51562 16.6406 3.30609 16.6406 3.04688C16.6406 2.78766 16.8502 2.57812 17.1094 2.57812H29.2964C29.5556 2.57812 29.7652 2.78766 29.7652 3.04688C29.7652 3.30609 29.5556 3.51562 29.2964 3.51562Z" fill="#656D78"/>
<path d="M25.9959 16.6379H19.9219C19.7972 16.6379 19.6781 16.5887 19.5905 16.5005L18.1842 15.0934C18.0961 15.0052 18.0469 14.8866 18.0469 14.762V4.92383C18.0469 4.66461 18.2564 4.45508 18.5156 4.45508H27.4219C27.6811 4.45508 27.8906 4.66461 27.8906 4.92383V14.762C27.8906 14.8876 27.8405 15.0071 27.7509 15.0962L26.325 16.5034C26.2378 16.5896 26.1192 16.6379 25.9959 16.6379ZM20.1159 15.7004H25.8038L26.9531 14.566V5.39258H18.9844V14.5679L20.1159 15.7004Z" fill="#E6E9ED"/>
<path d="M29.2964 2.57812C29.0372 2.57812 28.8276 2.78766 28.8276 3.04687V27.4247H29.7651V3.04687C29.7651 2.78766 29.5556 2.57812 29.2964 2.57812Z" fill="#656D78"/>
<path d="M23.9067 20.3945C23.9067 20.6528 23.6958 20.8633 23.438 20.8633H22.5005C22.2427 20.8633 22.0317 20.6528 22.0317 20.3945V18.0508C22.0317 17.7934 22.2427 17.582 22.5005 17.582H23.438C23.6958 17.582 23.9067 17.7934 23.9067 18.0508V20.3945Z" fill="#5D9CEC"/>
<path d="M23.438 17.582H22.9692H22.5005C22.2427 17.582 22.0317 17.7934 22.0317 18.0508V18.9883H23.9067V18.0508C23.9067 17.7934 23.6958 17.582 23.438 17.582Z" fill="#E6E9ED"/>
</svg>
