<svg width="30" height="30" viewBox="0 0 30 30" fill="none" xmlns="http://www.w3.org/2000/svg">
<g clip-path="url(#clip0_3887_4863)">
<path d="M18.5893 2.5061H4.99248C4.23223 2.5061 3.61377 3.12462 3.61377 3.88487V23.0348C3.61377 23.7951 4.23228 24.4135 4.99248 24.4135H18.5894C19.3497 24.4135 19.9682 23.795 19.9682 23.0348V3.88493C19.9682 3.12462 19.3496 2.5061 18.5893 2.5061Z" fill="#EBEEF2"/>
<path d="M18.5893 2.5061H16.9878C17.7481 2.5061 18.3666 3.12462 18.3666 3.88487V23.0348C18.3666 23.7951 17.748 24.4135 16.9878 24.4135H18.5893C19.3496 24.4135 19.968 23.795 19.968 23.0348V3.88493C19.9681 3.12462 19.3496 2.5061 18.5893 2.5061Z" fill="#D1D6DE"/>
<path d="M13.5534 2.64146H10.0283C9.78557 2.64146 9.58887 2.44477 9.58887 2.20201C9.58887 0.987774 10.5766 0 11.7909 0C13.0051 0 13.9929 0.987774 13.9929 2.20201C13.9929 2.44477 13.7962 2.64146 13.5534 2.64146ZM10.5428 1.76256H13.039C12.8574 1.2484 12.3664 0.878906 11.7909 0.878906C11.2153 0.878906 10.7244 1.2484 10.5428 1.76256Z" fill="#444966"/>
<path d="M26.0128 21.5298L24.7882 21.3423C24.7126 21.1208 24.623 20.9046 24.5205 20.6948L25.2535 19.6964C25.3824 19.5218 25.3637 19.2792 25.2102 19.1257L23.5443 17.4599C23.3908 17.3063 23.1488 17.2882 22.9736 17.4165L21.9752 18.1495C21.766 18.047 21.5492 17.9573 21.3277 17.8817L21.1402 16.6571C21.1074 16.4427 20.9229 16.2839 20.7061 16.2839H18.35C18.1332 16.2839 17.9486 16.4427 17.9158 16.6571L17.7283 17.8817C17.5068 17.9573 17.29 18.047 17.0809 18.1495L16.0824 17.4165C15.9078 17.2882 15.6652 17.3063 15.5117 17.4599L13.8459 19.1257C13.6924 19.2792 13.6736 19.5218 13.8025 19.6964L14.5355 20.6948C14.433 20.9046 14.3434 21.1208 14.2678 21.3423L13.0432 21.5298C12.8287 21.5626 12.6699 21.7472 12.6699 21.964V24.32C12.6699 24.5368 12.8287 24.7214 13.0432 24.7542L14.2678 24.9417C14.3434 25.1632 14.433 25.38 14.5355 25.5891L13.8025 26.5876C13.6736 26.7628 13.6924 27.0048 13.8459 27.1583L15.5117 28.8241C15.6652 28.9776 15.9078 28.9964 16.0824 28.8681L17.0809 28.1345C17.29 28.237 17.5068 28.3266 17.7283 28.4022L17.9158 29.6268C17.9486 29.8419 18.1332 30.0001 18.35 30.0001H20.7061C20.9229 30.0001 21.1074 29.8419 21.1402 29.6268L21.3277 28.4022C21.5492 28.3266 21.766 28.237 21.9752 28.1345L22.9736 28.8681C23.1488 28.9964 23.3908 28.9776 23.5443 28.8241L25.2102 27.1583C25.3637 27.0048 25.3824 26.7628 25.2535 26.5876L24.5205 25.5891C24.6231 25.38 24.7127 25.1632 24.7883 24.9417L26.0129 24.7542C26.2274 24.7214 26.3861 24.5368 26.3861 24.32V21.964C26.3861 21.7472 26.2274 21.5626 26.0128 21.5298ZM22.2723 23.1423C22.2723 24.6575 21.0436 25.8862 19.5283 25.8862C18.0125 25.8862 16.7838 24.6575 16.7838 23.1423C16.7838 21.6265 18.0125 20.3977 19.5283 20.3977C21.0434 20.3977 22.2723 21.6265 22.2723 23.1423Z" fill="#ED5575"/>
<path d="M19.5286 19.3697C17.4453 19.3697 15.7563 21.0586 15.7563 23.142C15.7563 25.2253 17.4453 26.9142 19.5286 26.9142C21.612 26.9142 23.3009 25.2253 23.3009 23.142C23.3009 21.0586 21.612 19.3697 19.5286 19.3697ZM19.5289 25.8862C18.0131 25.8862 16.7844 24.6575 16.7844 23.1422C16.7844 21.6264 18.0131 20.3977 19.5289 20.3977C21.0441 20.3977 22.2729 21.6264 22.2729 23.1422C22.2729 24.6575 21.044 25.8862 19.5289 25.8862Z" fill="#CC3A60"/>
<path d="M11.7908 6.81638C10.5396 6.81638 9.52539 7.83063 9.52539 9.08178V10.174C9.52539 11.4251 10.5396 12.4394 11.7908 12.4394C13.042 12.4394 14.0562 11.4251 14.0562 10.174V9.08178C14.0562 7.83063 13.0419 6.81638 11.7908 6.81638Z" fill="#F9C295"/>
<path d="M15.1451 15.8286C14.1886 16.4778 13.0342 16.857 11.791 16.857C10.5479 16.857 9.39344 16.4778 8.43701 15.8286C8.54629 14.8921 9.1944 14.1215 10.0622 13.8315L10.0612 13.8301C10.2367 13.7716 10.3343 13.7581 10.3405 13.755C10.8262 13.6559 11.0908 13.7359 12.7574 13.7059C12.9297 13.7059 13.0872 13.7235 13.2415 13.755C13.2485 13.7584 13.3485 13.7727 13.5208 13.8301L13.5199 13.8315C14.3877 14.1215 15.0358 14.8921 15.1451 15.8286Z" fill="#5C9CEE"/>
<path d="M13.2647 7.36247C13.2647 7.36235 13.2648 7.36229 13.2648 7.36217C11.8223 6.1262 9.52539 7.11942 9.52539 9.08167V9.29108C9.85896 9.43827 10.2276 9.52059 10.6156 9.52059C11.4125 9.52059 12.1285 9.17554 12.6234 8.6271C12.9363 9.10932 13.4554 9.4453 14.0561 9.50929C14.0244 9.33017 14.2482 8.20581 13.2647 7.36247Z" fill="#444966"/>
<path d="M21.8641 8.59308H16.8555C16.6127 8.59308 16.416 8.39638 16.416 8.15363C16.416 7.91087 16.6127 7.71417 16.8555 7.71417H21.8641C22.1069 7.71417 22.3036 7.91087 22.3036 8.15363C22.3036 8.39638 22.1069 8.59308 21.8641 8.59308Z" fill="#444966"/>
<path d="M21.8641 13.7451H16.8555C16.6127 13.7451 16.416 13.5484 16.416 13.3057C16.416 13.0629 16.6127 12.8662 16.8555 12.8662H21.8641C22.1069 12.8662 22.3036 13.0629 22.3036 13.3057C22.3036 13.5484 22.1069 13.7451 21.8641 13.7451Z" fill="#444966"/>
<path d="M22.9932 6.5853C22.1284 6.5853 21.4248 7.28889 21.4248 8.15373C21.4248 9.01857 22.1284 9.72216 22.9932 9.72216C23.8581 9.72216 24.5617 9.01857 24.5617 8.15373C24.5617 7.28889 23.858 6.5853 22.9932 6.5853Z" fill="#9FD479"/>
<path d="M22.9932 11.7373C22.1284 11.7373 21.4248 12.4409 21.4248 13.3057C21.4248 14.1706 22.1284 14.8742 22.9932 14.8742C23.8581 14.8742 24.5617 14.1706 24.5617 13.3057C24.5617 12.4409 23.858 11.7373 22.9932 11.7373Z" fill="#9FD479"/>
<path d="M14.562 1.76251H9.01943C8.5416 1.76251 8.15283 2.15128 8.15283 2.62911V4.00155C8.15283 4.47939 8.5416 4.86816 9.01943 4.86816H14.562C15.0398 4.86816 15.4286 4.47939 15.4286 4.00155V2.62911C15.4286 2.15128 15.0398 1.76251 14.562 1.76251Z" fill="#F2DF33"/>
<path d="M14.562 1.76251H13.7124C14.1902 1.76251 14.579 2.15128 14.579 2.62911V4.00155C14.579 4.47939 14.1902 4.86816 13.7124 4.86816H14.562C15.0399 4.86816 15.4286 4.47939 15.4286 4.00155V2.62911C15.4286 2.15128 15.0398 1.76251 14.562 1.76251Z" fill="#D9B92C"/>
</g>
<defs>
<clipPath id="clip0_3887_4863">
<rect width="30" height="30" fill="white"/>
</clipPath>
</defs>
</svg>
