<svg width="30" height="30" viewBox="0 0 30 30" fill="none" xmlns="http://www.w3.org/2000/svg">
<g clip-path="url(#clip0_4063_7793)">
<path d="M22.1143 17.1059C22.1452 17.0538 22.1762 17.012 22.207 16.9784C23.3817 15.1463 24.0227 12.9047 24.0227 10.5903C24.0227 4.75083 19.9967 0 15.0482 0C10.0999 0 6.07397 4.75083 6.07397 10.5903C6.07397 12.9308 6.72958 15.1963 7.92987 17.0393C7.94258 17.057 7.95542 17.0764 7.96819 17.0974C8.00704 17.1562 8.04647 17.2146 8.08637 17.2725C8.5352 17.8548 9.11065 17.7203 9.27676 17.6652C9.29229 17.6593 9.30811 17.6536 9.32381 17.6478L9.32399 17.6477C9.91678 17.4281 10.575 17.2435 11.2862 17.0982L12.5292 16.8441L11.5917 15.9893C10.829 15.2941 10.3326 14.3512 10.1943 13.3344L10.1242 12.8206L9.60729 12.7785C8.75604 12.7093 8.08924 11.9857 8.08924 11.1311C8.08924 10.2794 8.72739 9.57203 9.57366 9.48572L10.1434 9.42754L10.1511 8.97438C10.7254 8.80516 13.2572 7.98672 15.036 6.24503C15.4551 6.73423 17.0265 8.35141 19.9461 8.98334L19.9536 9.4276L20.5236 9.48578C21.3695 9.57221 22.0075 10.2795 22.0075 11.1311C22.0075 11.9856 21.3407 12.7092 20.4895 12.7785L19.9726 12.8206L19.9025 13.3346C19.7641 14.351 19.268 15.2938 18.5053 15.9891L17.5678 16.844L18.8109 17.0979C19.5537 17.2497 20.2389 17.4447 20.8526 17.6776C21.0773 17.7412 21.685 17.8287 22.1143 17.1059Z" fill="#694B4B"/>
<path d="M17.4629 19.1299V16.7854L16.6547 16.9963C16.2929 17.0908 15.919 17.1387 15.5433 17.1387H14.5535C14.1756 17.1387 13.7992 17.0901 13.4348 16.9942L12.6255 16.7812V19.1283L10.2185 19.7043L10.7419 21.5727L10.959 21.7046C11.2838 21.9025 12.1698 22.3913 13.3781 22.6562C13.9464 22.7808 14.5192 22.8439 15.0807 22.844H15.081C16.473 22.844 17.8353 22.4597 19.1299 21.702L19.355 21.5704L19.8688 19.7362L17.4629 19.1299Z" fill="#FBCB99"/>
<path d="M14.1523 22.6562C12.944 22.3912 12.0581 21.9025 11.7332 21.7046L11.2182 19.8127L13.1909 19.3372V17.0791L12.6255 16.7812V19.1283L10.2185 19.7043L10.7419 21.5727L10.959 21.7046C11.2838 21.9025 12.1698 22.3913 13.3781 22.6562C13.9464 22.7808 14.5192 22.8439 15.0807 22.844H15.081C15.2078 22.844 15.3342 22.8397 15.4604 22.8333C15.0264 22.8108 14.5881 22.7517 14.1523 22.6562Z" fill="#EDBA89"/>
<path d="M18.2479 21.9768C17.2226 22.4414 16.1497 22.6769 15.0591 22.6769C14.4946 22.6769 13.9269 22.6137 13.3721 22.4891C12.8505 22.3719 12.3376 22.2022 11.8477 21.9847L10.905 21.5662L13.2904 29.9997H16.8061L19.1969 21.5469L18.2479 21.9768Z" fill="#F5F5F7"/>
<path d="M10.9048 21.5664L13.2902 29.9999H14.0644L11.7903 21.9596L10.9048 21.5664Z" fill="#D2D2D7"/>
<path d="M23.2568 21.038C22.9697 20.8739 22.6448 20.7189 22.3054 20.5748L22.1518 20.5109C21.1072 20.0832 19.9594 19.7618 19.356 19.6055L16.4443 30.0002H24.6622C25.578 30.0002 25.7407 29.2797 25.7659 28.9324V25.8342C25.766 23.3012 24.408 21.7716 23.2568 21.038Z" fill="#324A5E"/>
<path d="M10.6439 19.6074C10.0405 19.7637 8.89267 20.0851 7.84806 20.5129L7.69449 20.5768C7.35505 20.7208 7.03021 20.8759 6.74304 21.04C5.59185 21.7735 4.23389 23.3032 4.23389 25.8362V28.9344C4.25926 29.2816 4.42185 30.0021 5.33767 30.0021H13.5555L10.6439 19.6074Z" fill="#324A5E"/>
<path d="M5.29866 28.9325V27.2942V25.8342C5.29866 23.3012 6.65668 21.7716 7.80782 21.038C8.09498 20.8739 8.41983 20.7189 8.75926 20.5748L8.91283 20.5109C9.52391 20.2607 10.1695 20.0473 10.7216 19.8816L10.6442 19.6055C10.0408 19.7618 8.89297 20.0831 7.84836 20.5109L7.69479 20.5748C7.35536 20.7189 7.03051 20.8738 6.74334 21.038C5.59216 21.7716 4.23413 23.3012 4.23413 25.8342V28.9324C4.25903 29.2746 4.41788 29.9786 5.29866 29.9992V28.9325Z" fill="#283D4C"/>
<path d="M22.291 29.9997V25.7436C22.291 25.4763 22.0744 25.2598 21.8071 25.2598C21.5398 25.2598 21.3232 25.4763 21.3232 25.7436V29.9997H22.291Z" fill="#283D4C"/>
<path d="M8.62057 29.9997V25.7436C8.62057 25.4763 8.404 25.2598 8.1367 25.2598C7.86939 25.2598 7.65283 25.4763 7.65283 25.7436V29.9997H8.62057Z" fill="#283D4C"/>
<path d="M20.8558 9.09746C20.5956 9.01637 20.313 9.06371 20.0936 9.22496C19.8744 9.38633 19.7449 9.6425 19.7449 9.91479V12.3543C19.7449 12.6264 19.8743 12.8824 20.0936 13.0436C20.2425 13.1533 20.4206 13.2103 20.601 13.2103C20.6861 13.2103 20.7723 13.1977 20.8556 13.1715C21.0197 13.1205 21.1809 13.0466 21.3347 12.9523C21.4252 12.8969 21.5046 12.8247 21.5689 12.7404C21.6633 12.6917 21.7478 12.6259 21.8183 12.5464C22.1642 12.1552 22.3547 11.6539 22.3547 11.1343C22.3547 10.1955 21.7524 9.3769 20.8558 9.09746Z" fill="#FBCB99"/>
<path d="M9.99397 9.22499C9.7746 9.06374 9.49171 9.01646 9.23184 9.09732C8.3353 9.37699 7.73267 10.1956 7.73267 11.1343C7.73267 12.0734 8.3353 12.892 9.23184 13.1715C9.31522 13.1977 9.40118 13.2104 9.48667 13.2104C9.66684 13.2104 9.84491 13.1534 9.99397 13.0438C10.2135 12.8825 10.3428 12.6265 10.3428 12.3544V9.91458C10.3429 9.64253 10.2135 9.38636 9.99397 9.22499Z" fill="#EDBA89"/>
<path d="M20.2619 9.13014C20.2619 9.13014 20.2655 9.11245 20.2668 9.08432V9.04166C20.2615 8.9393 20.2164 8.77184 20.0038 8.66801L19.7723 8.61247C17.5321 8.07434 16.1912 6.9896 15.5561 6.34103C15.5561 6.34103 15.556 6.34097 15.5559 6.34091C15.0158 5.84632 14.4557 6.34091 14.4557 6.34091L14.4556 6.34085C12.9298 7.66805 11.0377 8.35923 10.2807 8.5984L10.1792 8.6304C10.1791 8.63045 10.179 8.63051 10.179 8.63051C9.92089 8.7153 9.84765 8.88012 9.82983 8.99737V12.737C9.82983 15.3416 11.9489 17.4607 14.5535 17.4607H15.5434C18.1479 17.4607 20.2668 15.3416 20.2668 12.737V9.12616L20.2619 9.13014Z" fill="#FBCB99"/>
<path d="M15.376 6.21269C14.8983 5.95218 14.4557 6.34236 14.4557 6.34236L14.4556 6.3423C12.9299 7.6695 11.0377 8.36067 10.2807 8.59985L10.1792 8.63184C10.1791 8.6319 10.179 8.63196 10.179 8.63196C9.92089 8.71674 9.84765 8.88157 9.82983 8.99881V12.7385C9.82983 15.3431 11.9489 17.4621 14.5535 17.4621H15.3277C12.7231 17.4621 10.604 15.3431 10.604 12.7385V9.27151C10.604 8.84536 10.9166 8.65897 11.0958 8.58678C11.1343 8.57448 11.1748 8.56129 11.2183 8.54682L11.2186 8.54676H11.2185C12.084 8.25883 13.9081 7.54194 15.3552 6.2315L15.376 6.21269Z" fill="#EDBA89"/>
<path d="M15.4629 12.6427C15.6408 12.6427 15.7855 12.7874 15.7855 12.9652C15.7855 13.1431 15.6408 13.2878 15.4629 13.2878H14.6387C14.4608 13.2878 14.3162 13.1431 14.3162 12.9652V11.3929C14.3162 11.215 14.4609 11.0703 14.6387 11.0703C14.8165 11.0703 14.9613 11.215 14.9613 11.3929V12.6427H15.4629Z" fill="#EDBA89"/>
<path d="M7.96813 17.0974C8.00698 17.1563 8.04641 17.2146 8.08631 17.2725C8.55295 17.8781 9.15659 17.7085 9.29451 17.6591C9.30448 17.6554 9.31403 17.6515 9.32393 17.6478L9.24629 17.5427C7.82464 15.6177 7.04171 13.1486 7.04171 10.5903C7.04171 4.94237 10.8078 0.313183 15.5321 0.0154687C15.3719 0.00544921 15.2107 0 15.0483 0C10.0999 0 6.07397 4.75083 6.07397 10.5903C6.07397 12.9308 6.72958 15.1963 7.92987 17.0393C7.94253 17.057 7.95536 17.0764 7.96813 17.0974Z" fill="#563B3B"/>
</g>
<defs>
<clipPath id="clip0_4063_7793">
<rect width="30" height="30" fill="white"/>
</clipPath>
</defs>
</svg>
